<svg width="282" height="441" viewBox="0 0 282 441" fill="none" xmlns="http://www.w3.org/2000/svg">
<rect width="214" height="441" rx="32" fill="#222222"/>
<rect x="0.5" y="0.5" width="213" height="440" rx="31.5" stroke="white" stroke-opacity="0.1"/>
<g opacity="0.05">
<circle cx="25" cy="21" r="5" fill="white"/>
<circle cx="41" cy="21" r="5" fill="white"/>
<circle cx="57" cy="21" r="5" fill="white"/>
</g>
<rect x="200" y="27" width="82" height="38" rx="19" fill="#FED500"/>
<path d="M239.306 51.064C239.306 50.446 239.306 49.849 239.306 49.273C239.306 48.697 239.306 48.154 239.306 47.644V45.421C239.306 44.911 239.306 44.368 239.306 43.792C239.306 43.216 239.306 42.619 239.306 42.001H241.7C241.7 42.619 241.7 43.216 241.7 43.792C241.7 44.368 241.7 44.911 241.7 45.421V47.644C241.7 48.154 241.7 48.697 241.7 49.273C241.7 49.849 241.7 50.446 241.7 51.064H239.306ZM236.039 47.698V45.367C236.657 45.367 237.254 45.367 237.83 45.367C238.406 45.367 238.946 45.367 239.45 45.367H241.547C242.057 45.367 242.6 45.367 243.176 45.367C243.752 45.367 244.349 45.367 244.967 45.367V47.698C244.349 47.698 243.752 47.698 243.176 47.698C242.6 47.698 242.057 47.698 241.547 47.698H239.45C238.946 47.698 238.406 47.698 237.83 47.698C237.254 47.698 236.657 47.698 236.039 47.698Z" fill="#242424"/>
<rect x="200" y="127" width="82" height="38" rx="19" fill="#FED500"/>
<rect x="200" y="216" width="82" height="38" rx="19" fill="#FED500"/>
<rect x="200" y="345" width="82" height="38" rx="19" fill="#FED500"/>
<rect opacity="0.1" x="20" y="38" width="174" height="73" rx="3" fill="white"/>
<rect opacity="0.1" x="20" y="370" width="174" height="51" rx="3" fill="white"/>
<rect opacity="0.1" x="20" y="127" width="52" height="48" rx="3" fill="white"/>
<rect opacity="0.1" x="81" y="127" width="52" height="48" rx="3" fill="white"/>
<rect opacity="0.1" x="142" y="127" width="52" height="48" rx="3" fill="white"/>
<rect opacity="0.05" x="20" y="330" width="174" height="24" rx="3" fill="white"/>
<rect opacity="0.05" x="54" y="191" width="106" height="28" rx="3" fill="white"/>
<rect opacity="0.1" x="20" y="235" width="101" height="79" rx="3" fill="white"/>
<rect opacity="0.1" x="133" y="235" width="61" height="79" rx="3" fill="white"/>
<path d="M237.095 147.752V145.421C237.623 145.421 238.133 145.421 238.625 145.421C239.117 145.421 239.576 145.421 240.002 145.421C240.434 145.421 240.896 145.421 241.388 145.421C241.886 145.421 242.396 145.421 242.918 145.421V147.752C242.396 147.752 241.886 147.752 241.388 147.752C240.896 147.752 240.434 147.752 240.002 147.752C239.576 147.752 239.117 147.752 238.625 147.752C238.133 147.752 237.623 147.752 237.095 147.752Z" fill="#242424"/>
<path d="M239.306 240.064C239.306 239.446 239.306 238.849 239.306 238.273C239.306 237.697 239.306 237.154 239.306 236.644V234.421C239.306 233.911 239.306 233.368 239.306 232.792C239.306 232.216 239.306 231.619 239.306 231.001H241.7C241.7 231.619 241.7 232.216 241.7 232.792C241.7 233.368 241.7 233.911 241.7 234.421V236.644C241.7 237.154 241.7 237.697 241.7 238.273C241.7 238.849 241.7 239.446 241.7 240.064H239.306ZM236.039 236.698V234.367C236.657 234.367 237.254 234.367 237.83 234.367C238.406 234.367 238.946 234.367 239.45 234.367H241.547C242.057 234.367 242.6 234.367 243.176 234.367C243.752 234.367 244.349 234.367 244.967 234.367V236.698C244.349 236.698 243.752 236.698 243.176 236.698C242.6 236.698 242.057 236.698 241.547 236.698H239.45C238.946 236.698 238.406 236.698 237.83 236.698C237.254 236.698 236.657 236.698 236.039 236.698Z" fill="#242424"/>
<path d="M237.095 365.752V363.421C237.623 363.421 238.133 363.421 238.625 363.421C239.117 363.421 239.576 363.421 240.002 363.421C240.434 363.421 240.896 363.421 241.388 363.421C241.886 363.421 242.396 363.421 242.918 363.421V365.752C242.396 365.752 241.886 365.752 241.388 365.752C240.896 365.752 240.434 365.752 240.002 365.752C239.576 365.752 239.117 365.752 238.625 365.752C238.133 365.752 237.623 365.752 237.095 365.752Z" fill="#242424"/>
</svg>
