<svg width="661" height="455" viewBox="0 0 661 455" fill="none" xmlns="http://www.w3.org/2000/svg">
<rect x="238" y="48" width="214" height="407" rx="32" fill="#222222"/>
<rect x="238.5" y="48.5" width="213" height="406" rx="31.5" stroke="white" stroke-opacity="0.1"/>
<g opacity="0.05">
<circle cx="263" cy="69" r="5" fill="white"/>
<circle cx="279" cy="69" r="5" fill="white"/>
<circle cx="295" cy="69" r="5" fill="white"/>
</g>
<rect x="258" y="356" width="82" height="38" rx="19" fill="#FED500"/>
<rect opacity="0.1" x="258" y="86" width="175" height="38" rx="3" fill="white"/>
<rect opacity="0.1" x="258" y="140" width="175" height="38" rx="3" fill="white"/>
<rect opacity="0.1" x="258" y="194" width="114" height="82" rx="3" fill="white"/>
<rect opacity="0.05" x="380" y="194" width="53" height="82" rx="3" fill="white"/>
<rect opacity="0.1" width="114" height="38" rx="3" transform="matrix(-1 0 0 1 433 292)" fill="white"/>
<rect opacity="0.05" width="53" height="38" rx="3" transform="matrix(-1 0 0 1 311 292)" fill="white"/>
<rect width="214" height="32" rx="16" transform="matrix(1 0 0 -1 238 32)" fill="#222222"/>
<rect x="0.5" y="-0.5" width="213" height="31" rx="15.5" transform="matrix(1 0 0 -1 238 31)" stroke="white" stroke-opacity="0.1"/>
<path d="M321.747 22.234C321.213 22.234 320.664 22.189 320.1 22.099C319.542 22.015 319.017 21.904 318.525 21.766C318.039 21.628 317.643 21.484 317.337 21.334L317.553 18.733C317.967 18.967 318.399 19.168 318.849 19.336C319.305 19.498 319.758 19.624 320.208 19.714C320.664 19.804 321.099 19.849 321.513 19.849C321.927 19.849 322.287 19.798 322.593 19.696C322.899 19.594 323.136 19.441 323.304 19.237C323.472 19.027 323.556 18.757 323.556 18.427C323.556 18.091 323.445 17.815 323.223 17.599C323.007 17.377 322.695 17.185 322.287 17.023C321.879 16.855 321.393 16.69 320.829 16.528C320.049 16.3 319.383 16.036 318.831 15.736C318.279 15.43 317.856 15.04 317.562 14.566C317.274 14.086 317.13 13.471 317.13 12.721C317.13 11.971 317.295 11.311 317.625 10.741C317.955 10.165 318.453 9.715 319.119 9.391C319.785 9.067 320.628 8.905 321.648 8.905C322.05 8.905 322.452 8.932 322.854 8.986C323.256 9.034 323.646 9.1 324.024 9.184C324.408 9.268 324.762 9.364 325.086 9.472C325.41 9.58 325.692 9.694 325.932 9.814L325.707 12.424C325.323 12.184 324.924 11.983 324.51 11.821C324.096 11.659 323.691 11.536 323.295 11.452C322.899 11.368 322.539 11.326 322.215 11.326C321.849 11.326 321.516 11.374 321.216 11.47C320.922 11.566 320.688 11.713 320.514 11.911C320.34 12.109 320.253 12.358 320.253 12.658C320.253 12.952 320.334 13.201 320.496 13.405C320.664 13.603 320.919 13.78 321.261 13.936C321.609 14.086 322.056 14.242 322.602 14.404C323.628 14.71 324.438 15.031 325.032 15.367C325.626 15.697 326.046 16.096 326.292 16.564C326.544 17.032 326.67 17.62 326.67 18.328C326.67 19.114 326.499 19.801 326.157 20.389C325.815 20.971 325.281 21.424 324.555 21.748C323.829 22.072 322.893 22.234 321.747 22.234ZM331.986 22.243C331.32 22.243 330.75 22.144 330.276 21.946C329.808 21.742 329.448 21.418 329.196 20.974C328.95 20.53 328.827 19.945 328.827 19.219C328.827 18.829 328.827 18.43 328.827 18.022C328.827 17.608 328.827 17.176 328.827 16.726C328.827 16.276 328.827 15.802 328.827 15.304C328.827 14.806 328.827 14.269 328.827 13.693C328.827 13.015 328.827 12.394 328.827 11.83C328.827 11.266 328.827 10.69 328.827 10.102L331.473 9.625C331.473 10.093 331.473 10.537 331.473 10.957C331.473 11.371 331.473 11.8 331.473 12.244C331.473 12.682 331.473 13.165 331.473 13.693V18.373C331.473 18.919 331.572 19.336 331.77 19.624C331.974 19.906 332.304 20.047 332.76 20.047C332.952 20.047 333.162 20.014 333.39 19.948C333.618 19.876 333.837 19.765 334.047 19.615L334.2 21.793C334.044 21.889 333.846 21.97 333.606 22.036C333.366 22.102 333.105 22.153 332.823 22.189C332.541 22.225 332.262 22.243 331.986 22.243ZM327.369 15.043V13.018H334.155V15.043C333.591 15.043 333.024 15.043 332.454 15.043C331.89 15.043 331.344 15.043 330.816 15.043H329.619H327.369ZM336.69 25.537C336.936 24.925 337.185 24.298 337.437 23.656C337.689 23.02 337.938 22.399 338.184 21.793V22.297C337.968 21.679 337.749 21.058 337.527 20.434C337.305 19.804 337.086 19.189 336.87 18.589L336.303 16.969C336.075 16.327 335.841 15.67 335.601 14.998C335.367 14.32 335.136 13.66 334.908 13.018L337.806 12.937C337.974 13.591 338.139 14.23 338.301 14.854C338.463 15.472 338.628 16.108 338.796 16.762L339.426 19.192H339.642L340.335 16.762C340.515 16.132 340.692 15.508 340.866 14.89C341.04 14.272 341.214 13.648 341.388 13.018H344.268C344.082 13.498 343.902 13.963 343.728 14.413C343.554 14.863 343.362 15.361 343.152 15.907C342.948 16.447 342.702 17.092 342.414 17.842L341.433 20.362C340.995 21.502 340.62 22.474 340.308 23.278C340.002 24.082 339.723 24.808 339.471 25.456L336.69 25.537ZM345.633 22C345.633 21.358 345.633 20.737 345.633 20.137C345.633 19.531 345.633 18.856 345.633 18.112V13.117C345.633 12.385 345.633 11.662 345.633 10.948C345.633 10.228 345.633 9.514 345.633 8.806L348.324 8.572C348.324 9.28 348.324 10.009 348.324 10.759C348.324 11.503 348.324 12.289 348.324 13.117V18.112C348.324 18.856 348.324 19.531 348.324 20.137C348.324 20.737 348.324 21.358 348.324 22H345.633ZM355.038 22.234C353.88 22.234 352.932 22.03 352.194 21.622C351.462 21.214 350.922 20.653 350.574 19.939C350.232 19.225 350.061 18.406 350.061 17.482C350.061 16.558 350.223 15.742 350.547 15.034C350.871 14.326 351.354 13.774 351.996 13.378C352.644 12.976 353.448 12.775 354.408 12.775C355.224 12.775 355.923 12.922 356.505 13.216C357.087 13.504 357.534 13.942 357.846 14.53C358.158 15.118 358.314 15.859 358.314 16.753C358.314 16.993 358.308 17.206 358.296 17.392C358.284 17.578 358.263 17.764 358.233 17.95L355.929 17.077C355.941 16.999 355.95 16.918 355.956 16.834C355.962 16.75 355.965 16.672 355.965 16.6C355.965 15.994 355.821 15.52 355.533 15.178C355.251 14.83 354.885 14.656 354.435 14.656C354.093 14.656 353.79 14.758 353.526 14.962C353.262 15.16 353.055 15.439 352.905 15.799C352.755 16.159 352.68 16.588 352.68 17.086V17.527C352.68 18.049 352.773 18.496 352.959 18.868C353.151 19.24 353.445 19.525 353.841 19.723C354.237 19.921 354.744 20.02 355.362 20.02C355.602 20.02 355.878 19.999 356.19 19.957C356.508 19.909 356.829 19.84 357.153 19.75C357.483 19.654 357.789 19.534 358.071 19.39L358.161 21.658C357.927 21.766 357.654 21.865 357.342 21.955C357.036 22.039 356.688 22.105 356.298 22.153C355.908 22.207 355.488 22.234 355.038 22.234ZM351.096 17.95V16.51L356.667 16.393L358.233 16.834V17.95H351.096ZM363.125 22V20.128C363.455 19.846 363.782 19.567 364.106 19.291C364.436 19.015 364.766 18.739 365.096 18.463C365.864 17.815 366.524 17.209 367.076 16.645C367.628 16.081 368.051 15.538 368.345 15.016C368.639 14.494 368.786 13.969 368.786 13.441C368.786 12.865 368.624 12.433 368.3 12.145C367.976 11.851 367.487 11.704 366.833 11.704C366.551 11.704 366.26 11.737 365.96 11.803C365.666 11.863 365.369 11.953 365.069 12.073C364.769 12.187 364.469 12.322 364.169 12.478C363.875 12.634 363.587 12.808 363.305 13L363.062 10.354C363.338 10.222 363.641 10.099 363.971 9.985C364.307 9.865 364.661 9.76 365.033 9.67C365.411 9.574 365.798 9.499 366.194 9.445C366.596 9.391 366.998 9.364 367.4 9.364C368.312 9.364 369.083 9.514 369.713 9.814C370.349 10.108 370.829 10.534 371.153 11.092C371.483 11.644 371.648 12.307 371.648 13.081C371.648 13.717 371.516 14.35 371.252 14.98C370.988 15.604 370.586 16.231 370.046 16.861C369.512 17.491 368.834 18.127 368.012 18.769L366.239 20.164L365.897 19.624H368.129C368.741 19.624 369.353 19.624 369.965 19.624C370.577 19.624 371.186 19.624 371.792 19.624V22H363.125Z" fill="white"/>
<rect x="476" y="48" width="214" height="407" rx="32" fill="#222222"/>
<rect x="476.5" y="48.5" width="213" height="406" rx="31.5" stroke="white" stroke-opacity="0.1"/>
<g opacity="0.05">
<circle cx="501" cy="69" r="5" fill="white"/>
<circle cx="517" cy="69" r="5" fill="white"/>
<circle cx="533" cy="69" r="5" fill="white"/>
</g>
<rect x="496" y="356" width="82" height="38" rx="19" fill="#FED500"/>
<rect opacity="0.1" x="496" y="86" width="175" height="38" rx="3" fill="white"/>
<rect opacity="0.1" x="496" y="140" width="114" height="82" rx="3" fill="white"/>
<rect opacity="0.05" x="618" y="140" width="53" height="82" rx="3" fill="white"/>
<rect opacity="0.1" x="496" y="238" width="53" height="38" rx="3" fill="white"/>
<rect opacity="0.1" x="557" y="238" width="53" height="38" rx="3" fill="white"/>
<rect opacity="0.1" x="618" y="238" width="53" height="38" rx="3" fill="white"/>
<rect opacity="0.1" width="114" height="38" rx="3" transform="matrix(-1 0 0 1 671 292)" fill="white"/>
<rect opacity="0.05" width="53" height="38" rx="3" transform="matrix(-1 0 0 1 549 292)" fill="white"/>
<rect width="214" height="32" rx="16" transform="matrix(1 0 0 -1 476 32)" fill="#222222"/>
<rect x="0.5" y="-0.5" width="213" height="31" rx="15.5" transform="matrix(1 0 0 -1 476 31)" stroke="white" stroke-opacity="0.1"/>
<path d="M560.633 22.234C560.099 22.234 559.55 22.189 558.986 22.099C558.428 22.015 557.903 21.904 557.411 21.766C556.925 21.628 556.529 21.484 556.223 21.334L556.439 18.733C556.853 18.967 557.285 19.168 557.735 19.336C558.191 19.498 558.644 19.624 559.094 19.714C559.55 19.804 559.985 19.849 560.399 19.849C560.813 19.849 561.173 19.798 561.479 19.696C561.785 19.594 562.022 19.441 562.19 19.237C562.358 19.027 562.442 18.757 562.442 18.427C562.442 18.091 562.331 17.815 562.109 17.599C561.893 17.377 561.581 17.185 561.173 17.023C560.765 16.855 560.279 16.69 559.715 16.528C558.935 16.3 558.269 16.036 557.717 15.736C557.165 15.43 556.742 15.04 556.448 14.566C556.16 14.086 556.016 13.471 556.016 12.721C556.016 11.971 556.181 11.311 556.511 10.741C556.841 10.165 557.339 9.715 558.005 9.391C558.671 9.067 559.514 8.905 560.534 8.905C560.936 8.905 561.338 8.932 561.74 8.986C562.142 9.034 562.532 9.1 562.91 9.184C563.294 9.268 563.648 9.364 563.972 9.472C564.296 9.58 564.578 9.694 564.818 9.814L564.593 12.424C564.209 12.184 563.81 11.983 563.396 11.821C562.982 11.659 562.577 11.536 562.181 11.452C561.785 11.368 561.425 11.326 561.101 11.326C560.735 11.326 560.402 11.374 560.102 11.47C559.808 11.566 559.574 11.713 559.4 11.911C559.226 12.109 559.139 12.358 559.139 12.658C559.139 12.952 559.22 13.201 559.382 13.405C559.55 13.603 559.805 13.78 560.147 13.936C560.495 14.086 560.942 14.242 561.488 14.404C562.514 14.71 563.324 15.031 563.918 15.367C564.512 15.697 564.932 16.096 565.178 16.564C565.43 17.032 565.556 17.62 565.556 18.328C565.556 19.114 565.385 19.801 565.043 20.389C564.701 20.971 564.167 21.424 563.441 21.748C562.715 22.072 561.779 22.234 560.633 22.234ZM570.872 22.243C570.206 22.243 569.636 22.144 569.162 21.946C568.694 21.742 568.334 21.418 568.082 20.974C567.836 20.53 567.713 19.945 567.713 19.219C567.713 18.829 567.713 18.43 567.713 18.022C567.713 17.608 567.713 17.176 567.713 16.726C567.713 16.276 567.713 15.802 567.713 15.304C567.713 14.806 567.713 14.269 567.713 13.693C567.713 13.015 567.713 12.394 567.713 11.83C567.713 11.266 567.713 10.69 567.713 10.102L570.359 9.625C570.359 10.093 570.359 10.537 570.359 10.957C570.359 11.371 570.359 11.8 570.359 12.244C570.359 12.682 570.359 13.165 570.359 13.693V18.373C570.359 18.919 570.458 19.336 570.656 19.624C570.86 19.906 571.19 20.047 571.646 20.047C571.838 20.047 572.048 20.014 572.276 19.948C572.504 19.876 572.723 19.765 572.933 19.615L573.086 21.793C572.93 21.889 572.732 21.97 572.492 22.036C572.252 22.102 571.991 22.153 571.709 22.189C571.427 22.225 571.148 22.243 570.872 22.243ZM566.255 15.043V13.018H573.041V15.043C572.477 15.043 571.91 15.043 571.34 15.043C570.776 15.043 570.23 15.043 569.702 15.043H568.505H566.255ZM575.576 25.537C575.822 24.925 576.071 24.298 576.323 23.656C576.575 23.02 576.824 22.399 577.07 21.793V22.297C576.854 21.679 576.635 21.058 576.413 20.434C576.191 19.804 575.972 19.189 575.756 18.589L575.189 16.969C574.961 16.327 574.727 15.67 574.487 14.998C574.253 14.32 574.022 13.66 573.794 13.018L576.692 12.937C576.86 13.591 577.025 14.23 577.187 14.854C577.349 15.472 577.514 16.108 577.682 16.762L578.312 19.192H578.528L579.221 16.762C579.401 16.132 579.578 15.508 579.752 14.89C579.926 14.272 580.1 13.648 580.274 13.018H583.154C582.968 13.498 582.788 13.963 582.614 14.413C582.44 14.863 582.248 15.361 582.038 15.907C581.834 16.447 581.588 17.092 581.3 17.842L580.319 20.362C579.881 21.502 579.506 22.474 579.194 23.278C578.888 24.082 578.609 24.808 578.357 25.456L575.576 25.537ZM584.519 22C584.519 21.358 584.519 20.737 584.519 20.137C584.519 19.531 584.519 18.856 584.519 18.112V13.117C584.519 12.385 584.519 11.662 584.519 10.948C584.519 10.228 584.519 9.514 584.519 8.806L587.21 8.572C587.21 9.28 587.21 10.009 587.21 10.759C587.21 11.503 587.21 12.289 587.21 13.117V18.112C587.21 18.856 587.21 19.531 587.21 20.137C587.21 20.737 587.21 21.358 587.21 22H584.519ZM593.923 22.234C592.765 22.234 591.817 22.03 591.079 21.622C590.347 21.214 589.807 20.653 589.459 19.939C589.117 19.225 588.946 18.406 588.946 17.482C588.946 16.558 589.108 15.742 589.432 15.034C589.756 14.326 590.239 13.774 590.881 13.378C591.529 12.976 592.333 12.775 593.293 12.775C594.109 12.775 594.808 12.922 595.39 13.216C595.972 13.504 596.419 13.942 596.731 14.53C597.043 15.118 597.199 15.859 597.199 16.753C597.199 16.993 597.193 17.206 597.181 17.392C597.169 17.578 597.148 17.764 597.118 17.95L594.814 17.077C594.826 16.999 594.835 16.918 594.841 16.834C594.847 16.75 594.85 16.672 594.85 16.6C594.85 15.994 594.706 15.52 594.418 15.178C594.136 14.83 593.77 14.656 593.32 14.656C592.978 14.656 592.675 14.758 592.411 14.962C592.147 15.16 591.94 15.439 591.79 15.799C591.64 16.159 591.565 16.588 591.565 17.086V17.527C591.565 18.049 591.658 18.496 591.844 18.868C592.036 19.24 592.33 19.525 592.726 19.723C593.122 19.921 593.629 20.02 594.247 20.02C594.487 20.02 594.763 19.999 595.075 19.957C595.393 19.909 595.714 19.84 596.038 19.75C596.368 19.654 596.674 19.534 596.956 19.39L597.046 21.658C596.812 21.766 596.539 21.865 596.227 21.955C595.921 22.039 595.573 22.105 595.183 22.153C594.793 22.207 594.373 22.234 593.923 22.234ZM589.981 17.95V16.51L595.552 16.393L597.118 16.834V17.95H589.981ZM606.267 22.234C605.835 22.234 605.412 22.21 604.998 22.162C604.59 22.114 604.197 22.048 603.819 21.964C603.447 21.874 603.099 21.772 602.775 21.658C602.457 21.544 602.169 21.424 601.911 21.298L602.118 18.778C602.442 18.946 602.769 19.099 603.099 19.237C603.429 19.375 603.756 19.495 604.08 19.597C604.41 19.693 604.734 19.768 605.052 19.822C605.376 19.876 605.685 19.903 605.979 19.903C606.759 19.903 607.317 19.759 607.653 19.471C607.989 19.177 608.157 18.802 608.157 18.346C608.157 17.812 607.941 17.41 607.509 17.14C607.077 16.864 606.459 16.726 605.655 16.726C605.391 16.726 605.133 16.726 604.881 16.726C604.635 16.726 604.386 16.726 604.134 16.726V14.692C604.356 14.692 604.578 14.692 604.8 14.692C605.028 14.692 605.256 14.692 605.484 14.692C606.03 14.692 606.474 14.629 606.816 14.503C607.158 14.371 607.407 14.188 607.563 13.954C607.725 13.72 607.806 13.447 607.806 13.135C607.806 12.655 607.629 12.298 607.275 12.064C606.927 11.824 606.465 11.704 605.889 11.704C605.607 11.704 605.316 11.734 605.016 11.794C604.722 11.854 604.425 11.938 604.125 12.046C603.825 12.148 603.528 12.271 603.234 12.415C602.94 12.559 602.655 12.721 602.379 12.901L602.127 10.345C602.397 10.213 602.694 10.087 603.018 9.967C603.342 9.847 603.687 9.742 604.053 9.652C604.419 9.562 604.797 9.49 605.187 9.436C605.577 9.382 605.967 9.355 606.357 9.355C607.269 9.355 608.046 9.487 608.688 9.751C609.33 10.009 609.819 10.378 610.155 10.858C610.497 11.332 610.668 11.893 610.668 12.541C610.668 13.057 610.566 13.504 610.362 13.882C610.158 14.26 609.882 14.569 609.534 14.809C609.192 15.043 608.811 15.205 608.391 15.295V15.511C608.709 15.571 609.024 15.676 609.336 15.826C609.648 15.97 609.93 16.168 610.182 16.42C610.434 16.672 610.635 16.978 610.785 17.338C610.935 17.698 611.01 18.121 611.01 18.607C611.01 19.303 610.839 19.927 610.497 20.479C610.161 21.025 609.642 21.454 608.94 21.766C608.244 22.078 607.353 22.234 606.267 22.234Z" fill="white"/>
<rect width="214" height="32" rx="16" transform="matrix(1 0 0 -1 0 32)" fill="#222222"/>
<rect x="0.5" y="-0.5" width="213" height="31" rx="15.5" transform="matrix(1 0 0 -1 0 31)" stroke="white" stroke-opacity="0.1"/>
<path d="M84.8021 22.234C84.2681 22.234 83.7191 22.189 83.1551 22.099C82.5971 22.015 82.0721 21.904 81.5801 21.766C81.0941 21.628 80.6981 21.484 80.3921 21.334L80.6081 18.733C81.0221 18.967 81.4541 19.168 81.9041 19.336C82.3601 19.498 82.8131 19.624 83.2631 19.714C83.7191 19.804 84.1541 19.849 84.5681 19.849C84.9821 19.849 85.3421 19.798 85.6481 19.696C85.9541 19.594 86.1911 19.441 86.3591 19.237C86.5271 19.027 86.6111 18.757 86.6111 18.427C86.6111 18.091 86.5001 17.815 86.2781 17.599C86.0621 17.377 85.7501 17.185 85.3421 17.023C84.9341 16.855 84.4481 16.69 83.8841 16.528C83.1041 16.3 82.4381 16.036 81.8861 15.736C81.3341 15.43 80.9111 15.04 80.6171 14.566C80.3291 14.086 80.1851 13.471 80.1851 12.721C80.1851 11.971 80.3501 11.311 80.6801 10.741C81.0101 10.165 81.5081 9.715 82.1741 9.391C82.8401 9.067 83.6831 8.905 84.7031 8.905C85.1051 8.905 85.5071 8.932 85.9091 8.986C86.3111 9.034 86.7011 9.1 87.0791 9.184C87.4631 9.268 87.8171 9.364 88.1411 9.472C88.4651 9.58 88.7471 9.694 88.9871 9.814L88.7621 12.424C88.3781 12.184 87.9791 11.983 87.5651 11.821C87.1511 11.659 86.7461 11.536 86.3501 11.452C85.9541 11.368 85.5941 11.326 85.2701 11.326C84.9041 11.326 84.5711 11.374 84.2711 11.47C83.9771 11.566 83.7431 11.713 83.5691 11.911C83.3951 12.109 83.3081 12.358 83.3081 12.658C83.3081 12.952 83.3891 13.201 83.5511 13.405C83.7191 13.603 83.9741 13.78 84.3161 13.936C84.6641 14.086 85.1111 14.242 85.6571 14.404C86.6831 14.71 87.4931 15.031 88.0871 15.367C88.6811 15.697 89.1011 16.096 89.3471 16.564C89.5991 17.032 89.7251 17.62 89.7251 18.328C89.7251 19.114 89.5541 19.801 89.2121 20.389C88.8701 20.971 88.3361 21.424 87.6101 21.748C86.8841 22.072 85.9481 22.234 84.8021 22.234ZM95.0408 22.243C94.3748 22.243 93.8048 22.144 93.3308 21.946C92.8628 21.742 92.5028 21.418 92.2508 20.974C92.0048 20.53 91.8818 19.945 91.8818 19.219C91.8818 18.829 91.8818 18.43 91.8818 18.022C91.8818 17.608 91.8818 17.176 91.8818 16.726C91.8818 16.276 91.8818 15.802 91.8818 15.304C91.8818 14.806 91.8818 14.269 91.8818 13.693C91.8818 13.015 91.8818 12.394 91.8818 11.83C91.8818 11.266 91.8818 10.69 91.8818 10.102L94.5278 9.625C94.5278 10.093 94.5278 10.537 94.5278 10.957C94.5278 11.371 94.5278 11.8 94.5278 12.244C94.5278 12.682 94.5278 13.165 94.5278 13.693V18.373C94.5278 18.919 94.6268 19.336 94.8248 19.624C95.0288 19.906 95.3588 20.047 95.8148 20.047C96.0068 20.047 96.2168 20.014 96.4448 19.948C96.6728 19.876 96.8918 19.765 97.1018 19.615L97.2548 21.793C97.0988 21.889 96.9008 21.97 96.6608 22.036C96.4208 22.102 96.1598 22.153 95.8778 22.189C95.5958 22.225 95.3168 22.243 95.0408 22.243ZM90.4238 15.043V13.018H97.2098V15.043C96.6458 15.043 96.0788 15.043 95.5088 15.043C94.9448 15.043 94.3988 15.043 93.8708 15.043H92.6738H90.4238ZM99.7451 25.537C99.9911 24.925 100.24 24.298 100.492 23.656C100.744 23.02 100.993 22.399 101.239 21.793V22.297C101.023 21.679 100.804 21.058 100.582 20.434C100.36 19.804 100.141 19.189 99.9251 18.589L99.3581 16.969C99.1301 16.327 98.8961 15.67 98.6561 14.998C98.4221 14.32 98.1911 13.66 97.9631 13.018L100.861 12.937C101.029 13.591 101.194 14.23 101.356 14.854C101.518 15.472 101.683 16.108 101.851 16.762L102.481 19.192H102.697L103.39 16.762C103.57 16.132 103.747 15.508 103.921 14.89C104.095 14.272 104.269 13.648 104.443 13.018H107.323C107.137 13.498 106.957 13.963 106.783 14.413C106.609 14.863 106.417 15.361 106.207 15.907C106.003 16.447 105.757 17.092 105.469 17.842L104.488 20.362C104.05 21.502 103.675 22.474 103.363 23.278C103.057 24.082 102.778 24.808 102.526 25.456L99.7451 25.537ZM108.688 22C108.688 21.358 108.688 20.737 108.688 20.137C108.688 19.531 108.688 18.856 108.688 18.112V13.117C108.688 12.385 108.688 11.662 108.688 10.948C108.688 10.228 108.688 9.514 108.688 8.806L111.379 8.572C111.379 9.28 111.379 10.009 111.379 10.759C111.379 11.503 111.379 12.289 111.379 13.117V18.112C111.379 18.856 111.379 19.531 111.379 20.137C111.379 20.737 111.379 21.358 111.379 22H108.688ZM118.092 22.234C116.934 22.234 115.986 22.03 115.248 21.622C114.516 21.214 113.976 20.653 113.628 19.939C113.286 19.225 113.115 18.406 113.115 17.482C113.115 16.558 113.277 15.742 113.601 15.034C113.925 14.326 114.408 13.774 115.05 13.378C115.698 12.976 116.502 12.775 117.462 12.775C118.278 12.775 118.977 12.922 119.559 13.216C120.141 13.504 120.588 13.942 120.9 14.53C121.212 15.118 121.368 15.859 121.368 16.753C121.368 16.993 121.362 17.206 121.35 17.392C121.338 17.578 121.317 17.764 121.287 17.95L118.983 17.077C118.995 16.999 119.004 16.918 119.01 16.834C119.016 16.75 119.019 16.672 119.019 16.6C119.019 15.994 118.875 15.52 118.587 15.178C118.305 14.83 117.939 14.656 117.489 14.656C117.147 14.656 116.844 14.758 116.58 14.962C116.316 15.16 116.109 15.439 115.959 15.799C115.809 16.159 115.734 16.588 115.734 17.086V17.527C115.734 18.049 115.827 18.496 116.013 18.868C116.205 19.24 116.499 19.525 116.895 19.723C117.291 19.921 117.798 20.02 118.416 20.02C118.656 20.02 118.932 19.999 119.244 19.957C119.562 19.909 119.883 19.84 120.207 19.75C120.537 19.654 120.843 19.534 121.125 19.39L121.215 21.658C120.981 21.766 120.708 21.865 120.396 21.955C120.09 22.039 119.742 22.105 119.352 22.153C118.962 22.207 118.542 22.234 118.092 22.234ZM114.15 17.95V16.51L119.721 16.393L121.287 16.834V17.95H114.15ZM126.431 14.062L125.792 11.911C126.608 11.515 127.424 11.122 128.24 10.732C129.056 10.336 129.872 9.94 130.688 9.544L130.589 12.019C129.893 12.361 129.2 12.703 128.51 13.045C127.82 13.381 127.127 13.72 126.431 14.062ZM129.257 22C129.257 21.358 129.257 20.737 129.257 20.137C129.257 19.531 129.257 18.856 129.257 18.112V14.476C129.257 13.858 129.257 13.243 129.257 12.631C129.257 12.013 129.257 11.392 129.257 10.768L130.688 9.544L132.029 9.625C132.029 10.327 132.029 11.038 132.029 11.758C132.029 12.472 132.029 13.198 132.029 13.936V18.112C132.029 18.856 132.029 19.531 132.029 20.137C132.029 20.737 132.029 21.358 132.029 22H129.257Z" fill="white"/>
<rect y="48" width="214" height="407" rx="32" fill="#222222"/>
<rect x="0.5" y="48.5" width="213" height="406" rx="31.5" stroke="white" stroke-opacity="0.1"/>
<g opacity="0.05">
<circle cx="25" cy="69" r="5" fill="white"/>
<circle cx="41" cy="69" r="5" fill="white"/>
<circle cx="57" cy="69" r="5" fill="white"/>
</g>
<rect opacity="0.1" x="20" y="86" width="175" height="38" rx="3" fill="white"/>
<rect opacity="0.1" x="20" y="140" width="53" height="38" rx="3" fill="white"/>
<rect opacity="0.1" x="81" y="140" width="53" height="38" rx="3" fill="white"/>
<rect opacity="0.1" x="142" y="140" width="53" height="38" rx="3" fill="white"/>
<rect opacity="0.1" x="20" y="194" width="175" height="38" rx="3" fill="white"/>
<rect opacity="0.1" width="114" height="38" rx="3" transform="matrix(-1 0 0 1 195 248)" fill="white"/>
<rect opacity="0.05" width="53" height="38" rx="3" transform="matrix(-1 0 0 1 73 248)" fill="white"/>
<rect opacity="0.1" x="20" y="302" width="53" height="38" rx="3" fill="white"/>
<rect opacity="0.1" x="81" y="302" width="53" height="38" rx="3" fill="white"/>
<rect opacity="0.1" x="142" y="302" width="53" height="38" rx="3" fill="white"/>
<rect x="20" y="356" width="82" height="38" rx="19" fill="#FED500"/>
</svg>
