<svg width="661" height="252" viewBox="0 0 661 252" fill="none" xmlns="http://www.w3.org/2000/svg">
<rect width="214" height="32" rx="16" transform="matrix(1 0 0 -1 0 32)" fill="#222222"/>
<rect x="0.5" y="-0.5" width="213" height="31" rx="15.5" transform="matrix(1 0 0 -1 0 31)" stroke="white" stroke-opacity="0.1"/>
<path d="M73.7323 22.243C72.6883 22.243 71.7493 22.084 70.9153 21.766C70.0813 21.448 69.3673 20.995 68.7733 20.407C68.1853 19.813 67.7353 19.111 67.4233 18.301C67.1113 17.485 66.9553 16.582 66.9553 15.592C66.9553 14.308 67.2163 13.162 67.7383 12.154C68.2603 11.14 69.0103 10.345 69.9883 9.769C70.9663 9.193 72.1363 8.905 73.4983 8.905C73.9123 8.905 74.3203 8.932 74.7223 8.986C75.1303 9.04 75.5203 9.112 75.8923 9.202C76.2643 9.292 76.6093 9.397 76.9273 9.517C77.2513 9.631 77.5393 9.754 77.7913 9.886L77.5663 12.64C77.0983 12.346 76.6483 12.112 76.2163 11.938C75.7843 11.758 75.3673 11.629 74.9653 11.551C74.5693 11.467 74.1913 11.425 73.8313 11.425C73.0993 11.425 72.4483 11.587 71.8783 11.911C71.3083 12.229 70.8583 12.7 70.5283 13.324C70.2043 13.942 70.0423 14.698 70.0423 15.592C70.0423 16.162 70.1263 16.702 70.2943 17.212C70.4623 17.716 70.7143 18.163 71.0503 18.553C71.3923 18.943 71.8183 19.249 72.3283 19.471C72.8383 19.693 73.4353 19.804 74.1193 19.804C74.4013 19.804 74.6833 19.786 74.9653 19.75C75.2533 19.708 75.5413 19.645 75.8293 19.561C76.1173 19.477 76.4053 19.363 76.6933 19.219C76.9813 19.069 77.2693 18.889 77.5573 18.679L77.7193 21.397C77.4613 21.541 77.1763 21.667 76.8643 21.775C76.5523 21.883 76.2223 21.97 75.8743 22.036C75.5323 22.108 75.1783 22.159 74.8123 22.189C74.4523 22.225 74.0923 22.243 73.7323 22.243ZM84.003 22.243C83.187 22.243 82.476 22.114 81.87 21.856C81.27 21.598 80.772 21.247 80.376 20.803C79.986 20.359 79.692 19.852 79.494 19.282C79.302 18.706 79.206 18.106 79.206 17.482C79.206 16.588 79.386 15.787 79.746 15.079C80.112 14.365 80.646 13.804 81.348 13.396C82.056 12.982 82.923 12.775 83.949 12.775C84.741 12.775 85.434 12.895 86.028 13.135C86.628 13.369 87.126 13.702 87.522 14.134C87.924 14.56 88.224 15.061 88.422 15.637C88.62 16.207 88.719 16.822 88.719 17.482C88.719 18.388 88.536 19.201 88.17 19.921C87.804 20.635 87.27 21.202 86.568 21.622C85.866 22.036 85.011 22.243 84.003 22.243ZM83.994 20.047C84.444 20.047 84.813 19.927 85.101 19.687C85.395 19.441 85.614 19.123 85.758 18.733C85.908 18.343 85.983 17.926 85.983 17.482C85.983 16.954 85.899 16.504 85.731 16.132C85.563 15.754 85.329 15.466 85.029 15.268C84.729 15.07 84.381 14.971 83.985 14.971C83.541 14.971 83.166 15.082 82.86 15.304C82.56 15.526 82.332 15.826 82.176 16.204C82.026 16.582 81.951 17.008 81.951 17.482C81.951 17.926 82.026 18.343 82.176 18.733C82.332 19.123 82.56 19.441 82.86 19.687C83.166 19.927 83.544 20.047 83.994 20.047ZM90.4498 22C90.4498 21.358 90.4498 20.737 90.4498 20.137C90.4498 19.531 90.4498 18.856 90.4498 18.112V17.212C90.4498 16.522 90.4498 15.829 90.4498 15.133C90.4498 14.437 90.4498 13.732 90.4498 13.018L92.7088 12.883L92.8258 14.449H93.0508C93.2548 14.155 93.5008 13.882 93.7888 13.63C94.0768 13.372 94.4068 13.165 94.7788 13.009C95.1568 12.853 95.5858 12.775 96.0658 12.775C96.9658 12.775 97.6468 13.042 98.1088 13.576C98.5708 14.104 98.8018 14.896 98.8018 15.952C98.8018 16.348 98.8018 16.717 98.8018 17.059C98.8018 17.395 98.8018 17.746 98.8018 18.112C98.8018 18.844 98.8018 19.516 98.8018 20.128C98.8018 20.734 98.8018 21.358 98.8018 22H96.1198C96.1198 21.358 96.1198 20.737 96.1198 20.137C96.1198 19.537 96.1198 18.91 96.1198 18.256V16.816C96.1198 16.288 96.0328 15.892 95.8588 15.628C95.6848 15.358 95.3728 15.223 94.9228 15.223C94.6648 15.223 94.4278 15.277 94.2118 15.385C93.9958 15.487 93.7978 15.628 93.6178 15.808C93.4378 15.982 93.2788 16.177 93.1408 16.393V18.256C93.1408 18.928 93.1408 19.561 93.1408 20.155C93.1408 20.743 93.1408 21.358 93.1408 22H90.4498ZM105.14 22.198C104.12 22.198 103.256 21.997 102.548 21.595C101.84 21.187 101.3 20.632 100.928 19.93C100.556 19.228 100.37 18.427 100.37 17.527C100.37 16.621 100.541 15.811 100.883 15.097C101.231 14.377 101.744 13.813 102.422 13.405C103.106 12.991 103.955 12.784 104.969 12.784C105.329 12.784 105.683 12.811 106.031 12.865C106.385 12.919 106.718 12.994 107.03 13.09C107.342 13.186 107.621 13.3 107.867 13.432L107.669 15.754C107.327 15.556 107.012 15.409 106.724 15.313C106.442 15.211 106.187 15.145 105.959 15.115C105.731 15.079 105.527 15.061 105.347 15.061C104.669 15.061 104.126 15.277 103.718 15.709C103.316 16.135 103.115 16.714 103.115 17.446C103.115 17.944 103.214 18.385 103.412 18.769C103.616 19.147 103.913 19.444 104.303 19.66C104.699 19.876 105.185 19.984 105.761 19.984C105.983 19.984 106.205 19.963 106.427 19.921C106.649 19.879 106.868 19.816 107.084 19.732C107.306 19.648 107.516 19.54 107.714 19.408L107.849 21.73C107.645 21.82 107.408 21.901 107.138 21.973C106.874 22.039 106.577 22.093 106.247 22.135C105.917 22.177 105.548 22.198 105.14 22.198ZM114.075 22.234C112.917 22.234 111.969 22.03 111.231 21.622C110.499 21.214 109.959 20.653 109.611 19.939C109.269 19.225 109.098 18.406 109.098 17.482C109.098 16.558 109.26 15.742 109.584 15.034C109.908 14.326 110.391 13.774 111.033 13.378C111.681 12.976 112.485 12.775 113.445 12.775C114.261 12.775 114.96 12.922 115.542 13.216C116.124 13.504 116.571 13.942 116.883 14.53C117.195 15.118 117.351 15.859 117.351 16.753C117.351 16.993 117.345 17.206 117.333 17.392C117.321 17.578 117.3 17.764 117.27 17.95L114.966 17.077C114.978 16.999 114.987 16.918 114.993 16.834C114.999 16.75 115.002 16.672 115.002 16.6C115.002 15.994 114.858 15.52 114.57 15.178C114.288 14.83 113.922 14.656 113.472 14.656C113.13 14.656 112.827 14.758 112.563 14.962C112.299 15.16 112.092 15.439 111.942 15.799C111.792 16.159 111.717 16.588 111.717 17.086V17.527C111.717 18.049 111.81 18.496 111.996 18.868C112.188 19.24 112.482 19.525 112.878 19.723C113.274 19.921 113.781 20.02 114.399 20.02C114.639 20.02 114.915 19.999 115.227 19.957C115.545 19.909 115.866 19.84 116.19 19.75C116.52 19.654 116.826 19.534 117.108 19.39L117.198 21.658C116.964 21.766 116.691 21.865 116.379 21.955C116.073 22.039 115.725 22.105 115.335 22.153C114.945 22.207 114.525 22.234 114.075 22.234ZM110.133 17.95V16.51L115.704 16.393L117.27 16.834V17.95H110.133ZM119.049 25.537C119.049 24.895 119.049 24.259 119.049 23.629C119.049 22.999 119.049 22.312 119.049 21.568V17.212C119.049 16.522 119.049 15.829 119.049 15.133C119.049 14.437 119.049 13.732 119.049 13.018L121.434 12.883L121.515 14.116H121.731C121.911 13.834 122.127 13.594 122.379 13.396C122.637 13.192 122.928 13.039 123.252 12.937C123.576 12.829 123.933 12.775 124.323 12.775C125.115 12.775 125.781 12.982 126.321 13.396C126.861 13.81 127.269 14.374 127.545 15.088C127.821 15.802 127.959 16.606 127.959 17.5C127.959 18.334 127.827 19.111 127.563 19.831C127.305 20.551 126.909 21.133 126.375 21.577C125.841 22.021 125.166 22.243 124.35 22.243C123.984 22.243 123.651 22.192 123.351 22.09C123.057 21.994 122.79 21.856 122.55 21.676C122.31 21.496 122.094 21.28 121.902 21.028H121.74V21.712C121.74 22.384 121.74 23.014 121.74 23.602C121.74 24.196 121.74 24.814 121.74 25.456L119.049 25.537ZM123.333 19.957C123.759 19.957 124.11 19.84 124.386 19.606C124.668 19.372 124.875 19.072 125.007 18.706C125.139 18.334 125.205 17.938 125.205 17.518C125.205 17.08 125.136 16.678 124.998 16.312C124.86 15.94 124.65 15.643 124.368 15.421C124.092 15.199 123.741 15.088 123.315 15.088C123.105 15.088 122.901 15.121 122.703 15.187C122.511 15.247 122.331 15.337 122.163 15.457C122.001 15.577 121.86 15.721 121.74 15.889V18.949C121.848 19.153 121.977 19.33 122.127 19.48C122.277 19.63 122.451 19.747 122.649 19.831C122.853 19.915 123.081 19.957 123.333 19.957ZM133.474 22.243C132.808 22.243 132.238 22.144 131.764 21.946C131.296 21.742 130.936 21.418 130.684 20.974C130.438 20.53 130.315 19.945 130.315 19.219C130.315 18.829 130.315 18.43 130.315 18.022C130.315 17.608 130.315 17.176 130.315 16.726C130.315 16.276 130.315 15.802 130.315 15.304C130.315 14.806 130.315 14.269 130.315 13.693C130.315 13.015 130.315 12.394 130.315 11.83C130.315 11.266 130.315 10.69 130.315 10.102L132.961 9.625C132.961 10.093 132.961 10.537 132.961 10.957C132.961 11.371 132.961 11.8 132.961 12.244C132.961 12.682 132.961 13.165 132.961 13.693V18.373C132.961 18.919 133.06 19.336 133.258 19.624C133.462 19.906 133.792 20.047 134.248 20.047C134.44 20.047 134.65 20.014 134.878 19.948C135.106 19.876 135.325 19.765 135.535 19.615L135.688 21.793C135.532 21.889 135.334 21.97 135.094 22.036C134.854 22.102 134.593 22.153 134.311 22.189C134.029 22.225 133.75 22.243 133.474 22.243ZM128.857 15.043V13.018H135.643V15.043C135.079 15.043 134.512 15.043 133.942 15.043C133.378 15.043 132.832 15.043 132.304 15.043H131.107H128.857ZM140.607 14.062L139.968 11.911C140.784 11.515 141.6 11.122 142.416 10.732C143.232 10.336 144.048 9.94 144.864 9.544L144.765 12.019C144.069 12.361 143.376 12.703 142.686 13.045C141.996 13.381 141.303 13.72 140.607 14.062ZM143.433 22C143.433 21.358 143.433 20.737 143.433 20.137C143.433 19.531 143.433 18.856 143.433 18.112V14.476C143.433 13.858 143.433 13.243 143.433 12.631C143.433 12.013 143.433 11.392 143.433 10.768L144.864 9.544L146.205 9.625C146.205 10.327 146.205 11.038 146.205 11.758C146.205 12.472 146.205 13.198 146.205 13.936V18.112C146.205 18.856 146.205 19.531 146.205 20.137C146.205 20.737 146.205 21.358 146.205 22H143.433Z" fill="white"/>
<rect y="48" width="214" height="150" rx="32" fill="#222222"/>
<rect x="0.5" y="48.5" width="213" height="149" rx="31.5" stroke="white" stroke-opacity="0.1"/>
<g opacity="0.05">
<circle cx="25" cy="69" r="5" fill="white"/>
<circle cx="41" cy="69" r="5" fill="white"/>
<circle cx="57" cy="69" r="5" fill="white"/>
</g>
<rect opacity="0.1" x="20" y="86" width="175" height="38" rx="3" fill="white"/>
<rect opacity="0.1" x="20" y="140" width="53" height="38" rx="3" fill="white"/>
<rect opacity="0.1" x="81" y="140" width="53" height="38" rx="3" fill="white"/>
<rect opacity="0.1" x="142" y="140" width="53" height="38" rx="3" fill="white"/>
<rect y="214" width="82" height="38" rx="19" fill="#FED500"/>
<rect x="238" y="48" width="214" height="150" rx="32" fill="#222222"/>
<rect x="238.5" y="48.5" width="213" height="149" rx="31.5" stroke="white" stroke-opacity="0.1"/>
<g opacity="0.05">
<circle cx="263" cy="69" r="5" fill="white"/>
<circle cx="279" cy="69" r="5" fill="white"/>
<circle cx="295" cy="69" r="5" fill="white"/>
</g>
<rect x="258" y="214" width="82" height="38" rx="19" fill="#FED500"/>
<rect opacity="0.1" x="258" y="86" width="175" height="38" rx="3" fill="white"/>
<rect opacity="0.1" width="114" height="38" rx="3" transform="matrix(-1 0 0 1 372 140)" fill="white"/>
<rect opacity="0.05" width="53" height="38" rx="3" transform="matrix(-1 0 0 1 432 140)" fill="white"/>
<rect width="214" height="32" rx="16" transform="matrix(1 0 0 -1 238 32)" fill="#222222"/>
<rect x="0.5" y="-0.5" width="213" height="31" rx="15.5" transform="matrix(1 0 0 -1 238 31)" stroke="white" stroke-opacity="0.1"/>
<path d="M310.678 22.243C309.634 22.243 308.695 22.084 307.861 21.766C307.027 21.448 306.313 20.995 305.719 20.407C305.131 19.813 304.681 19.111 304.369 18.301C304.057 17.485 303.901 16.582 303.901 15.592C303.901 14.308 304.162 13.162 304.684 12.154C305.206 11.14 305.956 10.345 306.934 9.769C307.912 9.193 309.082 8.905 310.444 8.905C310.858 8.905 311.266 8.932 311.668 8.986C312.076 9.04 312.466 9.112 312.838 9.202C313.21 9.292 313.555 9.397 313.873 9.517C314.197 9.631 314.485 9.754 314.737 9.886L314.512 12.64C314.044 12.346 313.594 12.112 313.162 11.938C312.73 11.758 312.313 11.629 311.911 11.551C311.515 11.467 311.137 11.425 310.777 11.425C310.045 11.425 309.394 11.587 308.824 11.911C308.254 12.229 307.804 12.7 307.474 13.324C307.15 13.942 306.988 14.698 306.988 15.592C306.988 16.162 307.072 16.702 307.24 17.212C307.408 17.716 307.66 18.163 307.996 18.553C308.338 18.943 308.764 19.249 309.274 19.471C309.784 19.693 310.381 19.804 311.065 19.804C311.347 19.804 311.629 19.786 311.911 19.75C312.199 19.708 312.487 19.645 312.775 19.561C313.063 19.477 313.351 19.363 313.639 19.219C313.927 19.069 314.215 18.889 314.503 18.679L314.665 21.397C314.407 21.541 314.122 21.667 313.81 21.775C313.498 21.883 313.168 21.97 312.82 22.036C312.478 22.108 312.124 22.159 311.758 22.189C311.398 22.225 311.038 22.243 310.678 22.243ZM320.948 22.243C320.132 22.243 319.421 22.114 318.815 21.856C318.215 21.598 317.717 21.247 317.321 20.803C316.931 20.359 316.637 19.852 316.439 19.282C316.247 18.706 316.151 18.106 316.151 17.482C316.151 16.588 316.331 15.787 316.691 15.079C317.057 14.365 317.591 13.804 318.293 13.396C319.001 12.982 319.868 12.775 320.894 12.775C321.686 12.775 322.379 12.895 322.973 13.135C323.573 13.369 324.071 13.702 324.467 14.134C324.869 14.56 325.169 15.061 325.367 15.637C325.565 16.207 325.664 16.822 325.664 17.482C325.664 18.388 325.481 19.201 325.115 19.921C324.749 20.635 324.215 21.202 323.513 21.622C322.811 22.036 321.956 22.243 320.948 22.243ZM320.939 20.047C321.389 20.047 321.758 19.927 322.046 19.687C322.34 19.441 322.559 19.123 322.703 18.733C322.853 18.343 322.928 17.926 322.928 17.482C322.928 16.954 322.844 16.504 322.676 16.132C322.508 15.754 322.274 15.466 321.974 15.268C321.674 15.07 321.326 14.971 320.93 14.971C320.486 14.971 320.111 15.082 319.805 15.304C319.505 15.526 319.277 15.826 319.121 16.204C318.971 16.582 318.896 17.008 318.896 17.482C318.896 17.926 318.971 18.343 319.121 18.733C319.277 19.123 319.505 19.441 319.805 19.687C320.111 19.927 320.489 20.047 320.939 20.047ZM327.395 22C327.395 21.358 327.395 20.737 327.395 20.137C327.395 19.531 327.395 18.856 327.395 18.112V17.212C327.395 16.522 327.395 15.829 327.395 15.133C327.395 14.437 327.395 13.732 327.395 13.018L329.654 12.883L329.771 14.449H329.996C330.2 14.155 330.446 13.882 330.734 13.63C331.022 13.372 331.352 13.165 331.724 13.009C332.102 12.853 332.531 12.775 333.011 12.775C333.911 12.775 334.592 13.042 335.054 13.576C335.516 14.104 335.747 14.896 335.747 15.952C335.747 16.348 335.747 16.717 335.747 17.059C335.747 17.395 335.747 17.746 335.747 18.112C335.747 18.844 335.747 19.516 335.747 20.128C335.747 20.734 335.747 21.358 335.747 22H333.065C333.065 21.358 333.065 20.737 333.065 20.137C333.065 19.537 333.065 18.91 333.065 18.256V16.816C333.065 16.288 332.978 15.892 332.804 15.628C332.63 15.358 332.318 15.223 331.868 15.223C331.61 15.223 331.373 15.277 331.157 15.385C330.941 15.487 330.743 15.628 330.563 15.808C330.383 15.982 330.224 16.177 330.086 16.393V18.256C330.086 18.928 330.086 19.561 330.086 20.155C330.086 20.743 330.086 21.358 330.086 22H327.395ZM342.085 22.198C341.065 22.198 340.201 21.997 339.493 21.595C338.785 21.187 338.245 20.632 337.873 19.93C337.501 19.228 337.315 18.427 337.315 17.527C337.315 16.621 337.486 15.811 337.828 15.097C338.176 14.377 338.689 13.813 339.367 13.405C340.051 12.991 340.9 12.784 341.914 12.784C342.274 12.784 342.628 12.811 342.976 12.865C343.33 12.919 343.663 12.994 343.975 13.09C344.287 13.186 344.566 13.3 344.812 13.432L344.614 15.754C344.272 15.556 343.957 15.409 343.669 15.313C343.387 15.211 343.132 15.145 342.904 15.115C342.676 15.079 342.472 15.061 342.292 15.061C341.614 15.061 341.071 15.277 340.663 15.709C340.261 16.135 340.06 16.714 340.06 17.446C340.06 17.944 340.159 18.385 340.357 18.769C340.561 19.147 340.858 19.444 341.248 19.66C341.644 19.876 342.13 19.984 342.706 19.984C342.928 19.984 343.15 19.963 343.372 19.921C343.594 19.879 343.813 19.816 344.029 19.732C344.251 19.648 344.461 19.54 344.659 19.408L344.794 21.73C344.59 21.82 344.353 21.901 344.083 21.973C343.819 22.039 343.522 22.093 343.192 22.135C342.862 22.177 342.493 22.198 342.085 22.198ZM351.02 22.234C349.862 22.234 348.914 22.03 348.176 21.622C347.444 21.214 346.904 20.653 346.556 19.939C346.214 19.225 346.043 18.406 346.043 17.482C346.043 16.558 346.205 15.742 346.529 15.034C346.853 14.326 347.336 13.774 347.978 13.378C348.626 12.976 349.43 12.775 350.39 12.775C351.206 12.775 351.905 12.922 352.487 13.216C353.069 13.504 353.516 13.942 353.828 14.53C354.14 15.118 354.296 15.859 354.296 16.753C354.296 16.993 354.29 17.206 354.278 17.392C354.266 17.578 354.245 17.764 354.215 17.95L351.911 17.077C351.923 16.999 351.932 16.918 351.938 16.834C351.944 16.75 351.947 16.672 351.947 16.6C351.947 15.994 351.803 15.52 351.515 15.178C351.233 14.83 350.867 14.656 350.417 14.656C350.075 14.656 349.772 14.758 349.508 14.962C349.244 15.16 349.037 15.439 348.887 15.799C348.737 16.159 348.662 16.588 348.662 17.086V17.527C348.662 18.049 348.755 18.496 348.941 18.868C349.133 19.24 349.427 19.525 349.823 19.723C350.219 19.921 350.726 20.02 351.344 20.02C351.584 20.02 351.86 19.999 352.172 19.957C352.49 19.909 352.811 19.84 353.135 19.75C353.465 19.654 353.771 19.534 354.053 19.39L354.143 21.658C353.909 21.766 353.636 21.865 353.324 21.955C353.018 22.039 352.67 22.105 352.28 22.153C351.89 22.207 351.47 22.234 351.02 22.234ZM347.078 17.95V16.51L352.649 16.393L354.215 16.834V17.95H347.078ZM355.995 25.537C355.995 24.895 355.995 24.259 355.995 23.629C355.995 22.999 355.995 22.312 355.995 21.568V17.212C355.995 16.522 355.995 15.829 355.995 15.133C355.995 14.437 355.995 13.732 355.995 13.018L358.38 12.883L358.461 14.116H358.677C358.857 13.834 359.073 13.594 359.325 13.396C359.583 13.192 359.874 13.039 360.198 12.937C360.522 12.829 360.879 12.775 361.269 12.775C362.061 12.775 362.727 12.982 363.267 13.396C363.807 13.81 364.215 14.374 364.491 15.088C364.767 15.802 364.905 16.606 364.905 17.5C364.905 18.334 364.773 19.111 364.509 19.831C364.251 20.551 363.855 21.133 363.321 21.577C362.787 22.021 362.112 22.243 361.296 22.243C360.93 22.243 360.597 22.192 360.297 22.09C360.003 21.994 359.736 21.856 359.496 21.676C359.256 21.496 359.04 21.28 358.848 21.028H358.686V21.712C358.686 22.384 358.686 23.014 358.686 23.602C358.686 24.196 358.686 24.814 358.686 25.456L355.995 25.537ZM360.279 19.957C360.705 19.957 361.056 19.84 361.332 19.606C361.614 19.372 361.821 19.072 361.953 18.706C362.085 18.334 362.151 17.938 362.151 17.518C362.151 17.08 362.082 16.678 361.944 16.312C361.806 15.94 361.596 15.643 361.314 15.421C361.038 15.199 360.687 15.088 360.261 15.088C360.051 15.088 359.847 15.121 359.649 15.187C359.457 15.247 359.277 15.337 359.109 15.457C358.947 15.577 358.806 15.721 358.686 15.889V18.949C358.794 19.153 358.923 19.33 359.073 19.48C359.223 19.63 359.397 19.747 359.595 19.831C359.799 19.915 360.027 19.957 360.279 19.957ZM370.42 22.243C369.754 22.243 369.184 22.144 368.71 21.946C368.242 21.742 367.882 21.418 367.63 20.974C367.384 20.53 367.261 19.945 367.261 19.219C367.261 18.829 367.261 18.43 367.261 18.022C367.261 17.608 367.261 17.176 367.261 16.726C367.261 16.276 367.261 15.802 367.261 15.304C367.261 14.806 367.261 14.269 367.261 13.693C367.261 13.015 367.261 12.394 367.261 11.83C367.261 11.266 367.261 10.69 367.261 10.102L369.907 9.625C369.907 10.093 369.907 10.537 369.907 10.957C369.907 11.371 369.907 11.8 369.907 12.244C369.907 12.682 369.907 13.165 369.907 13.693V18.373C369.907 18.919 370.006 19.336 370.204 19.624C370.408 19.906 370.738 20.047 371.194 20.047C371.386 20.047 371.596 20.014 371.824 19.948C372.052 19.876 372.271 19.765 372.481 19.615L372.634 21.793C372.478 21.889 372.28 21.97 372.04 22.036C371.8 22.102 371.539 22.153 371.257 22.189C370.975 22.225 370.696 22.243 370.42 22.243ZM365.803 15.043V13.018H372.589V15.043C372.025 15.043 371.458 15.043 370.888 15.043C370.324 15.043 369.778 15.043 369.25 15.043H368.053H365.803ZM377.3 22V20.128C377.63 19.846 377.957 19.567 378.281 19.291C378.611 19.015 378.941 18.739 379.271 18.463C380.039 17.815 380.699 17.209 381.251 16.645C381.803 16.081 382.226 15.538 382.52 15.016C382.814 14.494 382.961 13.969 382.961 13.441C382.961 12.865 382.799 12.433 382.475 12.145C382.151 11.851 381.662 11.704 381.008 11.704C380.726 11.704 380.435 11.737 380.135 11.803C379.841 11.863 379.544 11.953 379.244 12.073C378.944 12.187 378.644 12.322 378.344 12.478C378.05 12.634 377.762 12.808 377.48 13L377.237 10.354C377.513 10.222 377.816 10.099 378.146 9.985C378.482 9.865 378.836 9.76 379.208 9.67C379.586 9.574 379.973 9.499 380.369 9.445C380.771 9.391 381.173 9.364 381.575 9.364C382.487 9.364 383.258 9.514 383.888 9.814C384.524 10.108 385.004 10.534 385.328 11.092C385.658 11.644 385.823 12.307 385.823 13.081C385.823 13.717 385.691 14.35 385.427 14.98C385.163 15.604 384.761 16.231 384.221 16.861C383.687 17.491 383.009 18.127 382.187 18.769L380.414 20.164L380.072 19.624H382.304C382.916 19.624 383.528 19.624 384.14 19.624C384.752 19.624 385.361 19.624 385.967 19.624V22H377.3Z" fill="white"/>
<rect x="476" y="48" width="214" height="150" rx="32" fill="#222222"/>
<rect x="476.5" y="48.5" width="213" height="149" rx="31.5" stroke="white" stroke-opacity="0.1"/>
<g opacity="0.05">
<circle cx="501" cy="69" r="5" fill="white"/>
<circle cx="517" cy="69" r="5" fill="white"/>
<circle cx="533" cy="69" r="5" fill="white"/>
</g>
<rect x="496" y="214" width="82" height="38" rx="19" fill="#FED500"/>
<rect opacity="0.1" width="114" height="38" rx="3" transform="matrix(-1 0 0 1 610 86)" fill="white"/>
<rect opacity="0.05" width="53" height="38" rx="3" transform="matrix(-1 0 0 1 670 86)" fill="white"/>
<rect opacity="0.1" x="496" y="140" width="53" height="38" rx="3" fill="white"/>
<rect opacity="0.1" x="557" y="140" width="53" height="38" rx="3" fill="white"/>
<rect opacity="0.1" x="618" y="140" width="53" height="38" rx="3" fill="white"/>
<rect width="214" height="32" rx="16" transform="matrix(1 0 0 -1 476 32)" fill="#222222"/>
<rect x="0.5" y="-0.5" width="213" height="31" rx="15.5" transform="matrix(1 0 0 -1 476 31)" stroke="white" stroke-opacity="0.1"/>
<path d="M548.563 22.243C547.519 22.243 546.58 22.084 545.746 21.766C544.912 21.448 544.198 20.995 543.604 20.407C543.016 19.813 542.566 19.111 542.254 18.301C541.942 17.485 541.786 16.582 541.786 15.592C541.786 14.308 542.047 13.162 542.569 12.154C543.091 11.14 543.841 10.345 544.819 9.769C545.797 9.193 546.967 8.905 548.329 8.905C548.743 8.905 549.151 8.932 549.553 8.986C549.961 9.04 550.351 9.112 550.723 9.202C551.095 9.292 551.44 9.397 551.758 9.517C552.082 9.631 552.37 9.754 552.622 9.886L552.397 12.64C551.929 12.346 551.479 12.112 551.047 11.938C550.615 11.758 550.198 11.629 549.796 11.551C549.4 11.467 549.022 11.425 548.662 11.425C547.93 11.425 547.279 11.587 546.709 11.911C546.139 12.229 545.689 12.7 545.359 13.324C545.035 13.942 544.873 14.698 544.873 15.592C544.873 16.162 544.957 16.702 545.125 17.212C545.293 17.716 545.545 18.163 545.881 18.553C546.223 18.943 546.649 19.249 547.159 19.471C547.669 19.693 548.266 19.804 548.95 19.804C549.232 19.804 549.514 19.786 549.796 19.75C550.084 19.708 550.372 19.645 550.66 19.561C550.948 19.477 551.236 19.363 551.524 19.219C551.812 19.069 552.1 18.889 552.388 18.679L552.55 21.397C552.292 21.541 552.007 21.667 551.695 21.775C551.383 21.883 551.053 21.97 550.705 22.036C550.363 22.108 550.009 22.159 549.643 22.189C549.283 22.225 548.923 22.243 548.563 22.243ZM558.834 22.243C558.018 22.243 557.307 22.114 556.701 21.856C556.101 21.598 555.603 21.247 555.207 20.803C554.817 20.359 554.523 19.852 554.325 19.282C554.133 18.706 554.037 18.106 554.037 17.482C554.037 16.588 554.217 15.787 554.577 15.079C554.943 14.365 555.477 13.804 556.179 13.396C556.887 12.982 557.754 12.775 558.78 12.775C559.572 12.775 560.265 12.895 560.859 13.135C561.459 13.369 561.957 13.702 562.353 14.134C562.755 14.56 563.055 15.061 563.253 15.637C563.451 16.207 563.55 16.822 563.55 17.482C563.55 18.388 563.367 19.201 563.001 19.921C562.635 20.635 562.101 21.202 561.399 21.622C560.697 22.036 559.842 22.243 558.834 22.243ZM558.825 20.047C559.275 20.047 559.644 19.927 559.932 19.687C560.226 19.441 560.445 19.123 560.589 18.733C560.739 18.343 560.814 17.926 560.814 17.482C560.814 16.954 560.73 16.504 560.562 16.132C560.394 15.754 560.16 15.466 559.86 15.268C559.56 15.07 559.212 14.971 558.816 14.971C558.372 14.971 557.997 15.082 557.691 15.304C557.391 15.526 557.163 15.826 557.007 16.204C556.857 16.582 556.782 17.008 556.782 17.482C556.782 17.926 556.857 18.343 557.007 18.733C557.163 19.123 557.391 19.441 557.691 19.687C557.997 19.927 558.375 20.047 558.825 20.047ZM565.281 22C565.281 21.358 565.281 20.737 565.281 20.137C565.281 19.531 565.281 18.856 565.281 18.112V17.212C565.281 16.522 565.281 15.829 565.281 15.133C565.281 14.437 565.281 13.732 565.281 13.018L567.54 12.883L567.657 14.449H567.882C568.086 14.155 568.332 13.882 568.62 13.63C568.908 13.372 569.238 13.165 569.61 13.009C569.988 12.853 570.417 12.775 570.897 12.775C571.797 12.775 572.478 13.042 572.94 13.576C573.402 14.104 573.633 14.896 573.633 15.952C573.633 16.348 573.633 16.717 573.633 17.059C573.633 17.395 573.633 17.746 573.633 18.112C573.633 18.844 573.633 19.516 573.633 20.128C573.633 20.734 573.633 21.358 573.633 22H570.951C570.951 21.358 570.951 20.737 570.951 20.137C570.951 19.537 570.951 18.91 570.951 18.256V16.816C570.951 16.288 570.864 15.892 570.69 15.628C570.516 15.358 570.204 15.223 569.754 15.223C569.496 15.223 569.259 15.277 569.043 15.385C568.827 15.487 568.629 15.628 568.449 15.808C568.269 15.982 568.11 16.177 567.972 16.393V18.256C567.972 18.928 567.972 19.561 567.972 20.155C567.972 20.743 567.972 21.358 567.972 22H565.281ZM579.971 22.198C578.951 22.198 578.087 21.997 577.379 21.595C576.671 21.187 576.131 20.632 575.759 19.93C575.387 19.228 575.201 18.427 575.201 17.527C575.201 16.621 575.372 15.811 575.714 15.097C576.062 14.377 576.575 13.813 577.253 13.405C577.937 12.991 578.786 12.784 579.8 12.784C580.16 12.784 580.514 12.811 580.862 12.865C581.216 12.919 581.549 12.994 581.861 13.09C582.173 13.186 582.452 13.3 582.698 13.432L582.5 15.754C582.158 15.556 581.843 15.409 581.555 15.313C581.273 15.211 581.018 15.145 580.79 15.115C580.562 15.079 580.358 15.061 580.178 15.061C579.5 15.061 578.957 15.277 578.549 15.709C578.147 16.135 577.946 16.714 577.946 17.446C577.946 17.944 578.045 18.385 578.243 18.769C578.447 19.147 578.744 19.444 579.134 19.66C579.53 19.876 580.016 19.984 580.592 19.984C580.814 19.984 581.036 19.963 581.258 19.921C581.48 19.879 581.699 19.816 581.915 19.732C582.137 19.648 582.347 19.54 582.545 19.408L582.68 21.73C582.476 21.82 582.239 21.901 581.969 21.973C581.705 22.039 581.408 22.093 581.078 22.135C580.748 22.177 580.379 22.198 579.971 22.198ZM588.906 22.234C587.748 22.234 586.8 22.03 586.062 21.622C585.33 21.214 584.79 20.653 584.442 19.939C584.1 19.225 583.929 18.406 583.929 17.482C583.929 16.558 584.091 15.742 584.415 15.034C584.739 14.326 585.222 13.774 585.864 13.378C586.512 12.976 587.316 12.775 588.276 12.775C589.092 12.775 589.791 12.922 590.373 13.216C590.955 13.504 591.402 13.942 591.714 14.53C592.026 15.118 592.182 15.859 592.182 16.753C592.182 16.993 592.176 17.206 592.164 17.392C592.152 17.578 592.131 17.764 592.101 17.95L589.797 17.077C589.809 16.999 589.818 16.918 589.824 16.834C589.83 16.75 589.833 16.672 589.833 16.6C589.833 15.994 589.689 15.52 589.401 15.178C589.119 14.83 588.753 14.656 588.303 14.656C587.961 14.656 587.658 14.758 587.394 14.962C587.13 15.16 586.923 15.439 586.773 15.799C586.623 16.159 586.548 16.588 586.548 17.086V17.527C586.548 18.049 586.641 18.496 586.827 18.868C587.019 19.24 587.313 19.525 587.709 19.723C588.105 19.921 588.612 20.02 589.23 20.02C589.47 20.02 589.746 19.999 590.058 19.957C590.376 19.909 590.697 19.84 591.021 19.75C591.351 19.654 591.657 19.534 591.939 19.39L592.029 21.658C591.795 21.766 591.522 21.865 591.21 21.955C590.904 22.039 590.556 22.105 590.166 22.153C589.776 22.207 589.356 22.234 588.906 22.234ZM584.964 17.95V16.51L590.535 16.393L592.101 16.834V17.95H584.964ZM593.88 25.537C593.88 24.895 593.88 24.259 593.88 23.629C593.88 22.999 593.88 22.312 593.88 21.568V17.212C593.88 16.522 593.88 15.829 593.88 15.133C593.88 14.437 593.88 13.732 593.88 13.018L596.265 12.883L596.346 14.116H596.562C596.742 13.834 596.958 13.594 597.21 13.396C597.468 13.192 597.759 13.039 598.083 12.937C598.407 12.829 598.764 12.775 599.154 12.775C599.946 12.775 600.612 12.982 601.152 13.396C601.692 13.81 602.1 14.374 602.376 15.088C602.652 15.802 602.79 16.606 602.79 17.5C602.79 18.334 602.658 19.111 602.394 19.831C602.136 20.551 601.74 21.133 601.206 21.577C600.672 22.021 599.997 22.243 599.181 22.243C598.815 22.243 598.482 22.192 598.182 22.09C597.888 21.994 597.621 21.856 597.381 21.676C597.141 21.496 596.925 21.28 596.733 21.028H596.571V21.712C596.571 22.384 596.571 23.014 596.571 23.602C596.571 24.196 596.571 24.814 596.571 25.456L593.88 25.537ZM598.164 19.957C598.59 19.957 598.941 19.84 599.217 19.606C599.499 19.372 599.706 19.072 599.838 18.706C599.97 18.334 600.036 17.938 600.036 17.518C600.036 17.08 599.967 16.678 599.829 16.312C599.691 15.94 599.481 15.643 599.199 15.421C598.923 15.199 598.572 15.088 598.146 15.088C597.936 15.088 597.732 15.121 597.534 15.187C597.342 15.247 597.162 15.337 596.994 15.457C596.832 15.577 596.691 15.721 596.571 15.889V18.949C596.679 19.153 596.808 19.33 596.958 19.48C597.108 19.63 597.282 19.747 597.48 19.831C597.684 19.915 597.912 19.957 598.164 19.957ZM608.305 22.243C607.639 22.243 607.069 22.144 606.595 21.946C606.127 21.742 605.767 21.418 605.515 20.974C605.269 20.53 605.146 19.945 605.146 19.219C605.146 18.829 605.146 18.43 605.146 18.022C605.146 17.608 605.146 17.176 605.146 16.726C605.146 16.276 605.146 15.802 605.146 15.304C605.146 14.806 605.146 14.269 605.146 13.693C605.146 13.015 605.146 12.394 605.146 11.83C605.146 11.266 605.146 10.69 605.146 10.102L607.792 9.625C607.792 10.093 607.792 10.537 607.792 10.957C607.792 11.371 607.792 11.8 607.792 12.244C607.792 12.682 607.792 13.165 607.792 13.693V18.373C607.792 18.919 607.891 19.336 608.089 19.624C608.293 19.906 608.623 20.047 609.079 20.047C609.271 20.047 609.481 20.014 609.709 19.948C609.937 19.876 610.156 19.765 610.366 19.615L610.519 21.793C610.363 21.889 610.165 21.97 609.925 22.036C609.685 22.102 609.424 22.153 609.142 22.189C608.86 22.225 608.581 22.243 608.305 22.243ZM603.688 15.043V13.018H610.474V15.043C609.91 15.043 609.343 15.043 608.773 15.043C608.209 15.043 607.663 15.043 607.135 15.043H605.938H603.688ZM619.443 22.234C619.011 22.234 618.588 22.21 618.174 22.162C617.766 22.114 617.373 22.048 616.995 21.964C616.623 21.874 616.275 21.772 615.951 21.658C615.633 21.544 615.345 21.424 615.087 21.298L615.294 18.778C615.618 18.946 615.945 19.099 616.275 19.237C616.605 19.375 616.932 19.495 617.256 19.597C617.586 19.693 617.91 19.768 618.228 19.822C618.552 19.876 618.861 19.903 619.155 19.903C619.935 19.903 620.493 19.759 620.829 19.471C621.165 19.177 621.333 18.802 621.333 18.346C621.333 17.812 621.117 17.41 620.685 17.14C620.253 16.864 619.635 16.726 618.831 16.726C618.567 16.726 618.309 16.726 618.057 16.726C617.811 16.726 617.562 16.726 617.31 16.726V14.692C617.532 14.692 617.754 14.692 617.976 14.692C618.204 14.692 618.432 14.692 618.66 14.692C619.206 14.692 619.65 14.629 619.992 14.503C620.334 14.371 620.583 14.188 620.739 13.954C620.901 13.72 620.982 13.447 620.982 13.135C620.982 12.655 620.805 12.298 620.451 12.064C620.103 11.824 619.641 11.704 619.065 11.704C618.783 11.704 618.492 11.734 618.192 11.794C617.898 11.854 617.601 11.938 617.301 12.046C617.001 12.148 616.704 12.271 616.41 12.415C616.116 12.559 615.831 12.721 615.555 12.901L615.303 10.345C615.573 10.213 615.87 10.087 616.194 9.967C616.518 9.847 616.863 9.742 617.229 9.652C617.595 9.562 617.973 9.49 618.363 9.436C618.753 9.382 619.143 9.355 619.533 9.355C620.445 9.355 621.222 9.487 621.864 9.751C622.506 10.009 622.995 10.378 623.331 10.858C623.673 11.332 623.844 11.893 623.844 12.541C623.844 13.057 623.742 13.504 623.538 13.882C623.334 14.26 623.058 14.569 622.71 14.809C622.368 15.043 621.987 15.205 621.567 15.295V15.511C621.885 15.571 622.2 15.676 622.512 15.826C622.824 15.97 623.106 16.168 623.358 16.42C623.61 16.672 623.811 16.978 623.961 17.338C624.111 17.698 624.186 18.121 624.186 18.607C624.186 19.303 624.015 19.927 623.673 20.479C623.337 21.025 622.818 21.454 622.116 21.766C621.42 22.078 620.529 22.234 619.443 22.234Z" fill="white"/>
</svg>
