<svg width="366" height="414" viewBox="0 0 366 414" fill="none" xmlns="http://www.w3.org/2000/svg">
<rect y="48" width="214" height="366" rx="32" fill="#222222"/>
<rect x="0.5" y="48.5" width="213" height="365" rx="31.5" stroke="white" stroke-opacity="0.1"/>
<g opacity="0.05">
<circle cx="25" cy="69" r="5" fill="white"/>
<circle cx="41" cy="69" r="5" fill="white"/>
<circle cx="57" cy="69" r="5" fill="white"/>
</g>
<rect opacity="0.1" x="20" y="86" width="175" height="38" rx="3" fill="white"/>
<rect opacity="0.1" x="20" y="140" width="53" height="38" rx="3" fill="white"/>
<rect opacity="0.1" x="81" y="140" width="53" height="38" rx="3" fill="white"/>
<rect opacity="0.1" x="142" y="140" width="53" height="38" rx="3" fill="white"/>
<rect opacity="0.05" x="20" y="194" width="175" height="38" rx="3" fill="white"/>
<rect opacity="0.1" width="114" height="38" rx="3" transform="matrix(-1 0 0 1 195 248)" fill="white"/>
<rect opacity="0.05" width="53" height="38" rx="3" transform="matrix(-1 0 0 1 73 248)" fill="white"/>
<rect opacity="0.1" x="20" y="302" width="53" height="38" rx="3" fill="white"/>
<rect opacity="0.1" x="81" y="302" width="53" height="38" rx="3" fill="white"/>
<rect opacity="0.05" x="142" y="302" width="53" height="38" rx="3" fill="white"/>
<rect x="20" y="356" width="82" height="38" rx="19" fill="#FED500"/>
<rect x="238" y="48" width="128" height="273" rx="32" fill="#222222"/>
<rect x="238.5" y="48.5" width="127" height="272" rx="31.5" stroke="white" stroke-opacity="0.1"/>
<g opacity="0.05">
<rect x="258" y="64" width="88" height="10" rx="3" fill="white"/>
</g>
<rect opacity="0.1" x="258" y="86" width="88" height="24" rx="3" fill="white"/>
<rect opacity="0.05" x="258" y="150" width="88" height="24" rx="3" fill="white"/>
<rect opacity="0.1" x="258" y="182" width="88" height="24" rx="3" fill="white"/>
<rect opacity="0.05" x="258" y="214" width="40" height="24" rx="3" fill="white"/>
<rect opacity="0.1" x="306" y="214" width="40" height="24" rx="3" fill="white"/>
<rect opacity="0.1" x="258" y="246" width="40" height="24" rx="3" fill="white"/>
<rect opacity="0.05" x="306" y="246" width="40" height="24" rx="3" fill="white"/>
<rect opacity="0.1" x="258" y="118" width="24" height="24" rx="3" fill="white"/>
<rect opacity="0.1" x="290" y="118" width="24" height="24" rx="3" fill="white"/>
<rect opacity="0.1" x="322" y="118" width="24" height="24" rx="3" fill="white"/>
<rect x="258" y="285" width="40" height="16" rx="8" fill="#FED500"/>
<rect width="366" height="32" rx="16" transform="matrix(1 0 0 -1 0 32)" fill="#222222"/>
<rect x="0.5" y="-0.5" width="365" height="31" rx="15.5" transform="matrix(1 0 0 -1 0 31)" stroke="white" stroke-opacity="0.1"/>
<path d="M164.14 22C164.14 21.31 164.14 20.641 164.14 19.993C164.14 19.345 164.14 18.619 164.14 17.815V13.459C164.14 12.631 164.14 11.884 164.14 11.218C164.14 10.552 164.14 9.868 164.14 9.166H172.537V11.632C171.985 11.632 171.391 11.632 170.755 11.632C170.125 11.632 169.381 11.632 168.523 11.632H165.841L167.038 9.634C167.038 10.336 167.038 11.02 167.038 11.686C167.038 12.352 167.038 13.099 167.038 13.927V17.815C167.038 18.619 167.038 19.345 167.038 19.993C167.038 20.641 167.038 21.31 167.038 22H164.14ZM166.291 16.897V14.521H168.577C169.363 14.521 170.038 14.521 170.602 14.521C171.172 14.521 171.721 14.521 172.249 14.521V16.897C171.691 16.897 171.13 16.897 170.566 16.897C170.002 16.897 169.336 16.897 168.568 16.897H166.291ZM174.421 22C174.421 21.358 174.421 20.737 174.421 20.137C174.421 19.531 174.421 18.856 174.421 18.112V17.212C174.421 16.618 174.421 16.087 174.421 15.619C174.421 15.145 174.421 14.701 174.421 14.287C174.421 13.867 174.421 13.444 174.421 13.018L177.112 12.937C177.112 13.369 177.112 13.798 177.112 14.224C177.112 14.65 177.112 15.103 177.112 15.583C177.112 16.063 177.112 16.606 177.112 17.212V18.112C177.112 18.856 177.112 19.531 177.112 20.137C177.112 20.737 177.112 21.358 177.112 22H174.421ZM175.744 11.632C175.246 11.632 174.847 11.515 174.547 11.281C174.253 11.041 174.106 10.654 174.106 10.12C174.106 9.64 174.253 9.274 174.547 9.022C174.847 8.764 175.252 8.635 175.762 8.635C176.272 8.635 176.671 8.77 176.959 9.04C177.253 9.304 177.4 9.664 177.4 10.12C177.4 10.654 177.253 11.041 176.959 11.281C176.665 11.515 176.26 11.632 175.744 11.632ZM179.377 22C179.377 21.358 179.377 20.737 179.377 20.137C179.377 19.531 179.377 18.856 179.377 18.112V17.212C179.377 16.522 179.377 15.829 179.377 15.133C179.377 14.437 179.377 13.732 179.377 13.018L181.636 12.883L181.753 14.449H181.978C182.182 14.155 182.428 13.882 182.716 13.63C183.004 13.372 183.334 13.165 183.706 13.009C184.084 12.853 184.513 12.775 184.993 12.775C185.893 12.775 186.574 13.042 187.036 13.576C187.498 14.104 187.729 14.896 187.729 15.952C187.729 16.348 187.729 16.717 187.729 17.059C187.729 17.395 187.729 17.746 187.729 18.112C187.729 18.844 187.729 19.516 187.729 20.128C187.729 20.734 187.729 21.358 187.729 22H185.047C185.047 21.358 185.047 20.737 185.047 20.137C185.047 19.537 185.047 18.91 185.047 18.256V16.816C185.047 16.288 184.96 15.892 184.786 15.628C184.612 15.358 184.3 15.223 183.85 15.223C183.592 15.223 183.355 15.277 183.139 15.385C182.923 15.487 182.725 15.628 182.545 15.808C182.365 15.982 182.206 16.177 182.068 16.393V18.256C182.068 18.928 182.068 19.561 182.068 20.155C182.068 20.743 182.068 21.358 182.068 22H179.377ZM191.898 22.216C191.382 22.216 190.932 22.108 190.548 21.892C190.164 21.676 189.864 21.373 189.648 20.983C189.432 20.587 189.324 20.119 189.324 19.579C189.324 19.069 189.414 18.643 189.594 18.301C189.774 17.953 190.005 17.671 190.287 17.455C190.575 17.239 190.887 17.074 191.223 16.96C191.565 16.846 191.898 16.762 192.222 16.708L194.724 16.321C194.736 15.973 194.67 15.703 194.526 15.511C194.382 15.313 194.172 15.175 193.896 15.097C193.626 15.019 193.302 14.98 192.924 14.98C192.72 14.98 192.498 14.998 192.258 15.034C192.018 15.064 191.766 15.112 191.502 15.178C191.244 15.244 190.974 15.325 190.692 15.421C190.416 15.517 190.137 15.634 189.855 15.772L189.729 13.477C189.951 13.399 190.206 13.318 190.494 13.234C190.782 13.15 191.094 13.075 191.43 13.009C191.766 12.937 192.12 12.88 192.492 12.838C192.87 12.796 193.257 12.775 193.653 12.775C194.403 12.775 195.042 12.886 195.57 13.108C196.104 13.324 196.512 13.666 196.794 14.134C197.076 14.602 197.217 15.214 197.217 15.97C197.217 16.264 197.217 16.624 197.217 17.05C197.217 17.476 197.217 17.857 197.217 18.193V19.048C197.217 19.504 197.217 19.975 197.217 20.461C197.217 20.941 197.217 21.454 197.217 22H194.922L194.751 20.803H194.544C194.382 21.031 194.178 21.256 193.932 21.478C193.686 21.694 193.392 21.871 193.05 22.009C192.714 22.147 192.33 22.216 191.898 22.216ZM192.969 20.137C193.179 20.137 193.389 20.089 193.599 19.993C193.809 19.891 194.004 19.75 194.184 19.57C194.364 19.384 194.52 19.165 194.652 18.913V17.536C194.58 17.59 194.487 17.641 194.373 17.689C194.265 17.731 194.103 17.779 193.887 17.833C193.677 17.881 193.383 17.944 193.005 18.022C192.789 18.064 192.603 18.136 192.447 18.238C192.291 18.34 192.168 18.472 192.078 18.634C191.994 18.79 191.952 18.976 191.952 19.192C191.952 19.534 192.054 19.777 192.258 19.921C192.468 20.065 192.705 20.137 192.969 20.137ZM199.275 22C199.275 21.358 199.275 20.737 199.275 20.137C199.275 19.531 199.275 18.856 199.275 18.112V13.117C199.275 12.385 199.275 11.662 199.275 10.948C199.275 10.228 199.275 9.514 199.275 8.806L201.966 8.572C201.966 9.28 201.966 10.009 201.966 10.759C201.966 11.503 201.966 12.289 201.966 13.117V18.112C201.966 18.856 201.966 19.531 201.966 20.137C201.966 20.737 201.966 21.358 201.966 22H199.275Z" fill="white"/>
</svg>
