<svg width="266" height="379" viewBox="0 0 266 379" fill="none" xmlns="http://www.w3.org/2000/svg">
<rect width="214" height="32" rx="16" transform="matrix(1 0 0 -1 0 32)" fill="#222222"/>
<rect x="0.5" y="-0.5" width="213" height="31" rx="15.5" transform="matrix(1 0 0 -1 0 31)" stroke="white" stroke-opacity="0.1"/>
<path d="M65.5627 22C65.5627 21.31 65.5627 20.641 65.5627 19.993C65.5627 19.345 65.5627 18.619 65.5627 17.815V13.459C65.5627 12.631 65.5627 11.884 65.5627 11.218C65.5627 10.552 65.5627 9.868 65.5627 9.166C66.0847 9.166 66.7837 9.166 67.6597 9.166C68.5417 9.166 69.5587 9.166 70.7107 9.166C71.7487 9.166 72.6157 9.295 73.3117 9.553C74.0137 9.811 74.5387 10.237 74.8867 10.831C75.2407 11.419 75.4177 12.211 75.4177 13.207C75.4177 14.053 75.2677 14.8 74.9677 15.448C74.6677 16.09 74.1817 16.594 73.5097 16.96C72.8377 17.32 71.9497 17.5 70.8457 17.5C70.5517 17.5 70.2367 17.5 69.9007 17.5C69.5707 17.5 69.2467 17.5 68.9287 17.5C68.6107 17.5 68.3377 17.5 68.1097 17.5V15.25H70.1707C70.6867 15.25 71.1097 15.181 71.4397 15.043C71.7697 14.905 72.0127 14.692 72.1687 14.404C72.3307 14.11 72.4117 13.732 72.4117 13.27C72.4117 12.904 72.3547 12.604 72.2407 12.37C72.1327 12.136 71.9857 11.956 71.7997 11.83C71.6137 11.704 71.4067 11.617 71.1787 11.569C70.9567 11.515 70.7317 11.488 70.5037 11.488H67.0657L68.4787 9.634C68.4787 10.336 68.4787 11.02 68.4787 11.686C68.4787 12.352 68.4787 13.099 68.4787 13.927V17.815C68.4787 18.619 68.4787 19.345 68.4787 19.993C68.4787 20.641 68.4787 21.31 68.4787 22H65.5627ZM77.0992 22C77.0992 21.358 77.0992 20.737 77.0992 20.137C77.0992 19.531 77.0992 18.856 77.0992 18.112V17.212C77.0992 16.522 77.0992 15.829 77.0992 15.133C77.0992 14.437 77.0992 13.732 77.0992 13.018L79.3582 12.883L79.4752 14.539H79.7002C79.9342 14.053 80.1922 13.684 80.4742 13.432C80.7562 13.174 81.0442 13 81.3382 12.91C81.6322 12.82 81.9142 12.775 82.1842 12.775C82.3222 12.775 82.4752 12.787 82.6432 12.811C82.8172 12.835 82.9792 12.877 83.1292 12.937L82.8952 15.547C82.6612 15.529 82.4512 15.514 82.2652 15.502C82.0792 15.49 81.8812 15.484 81.6712 15.484C81.5032 15.484 81.3292 15.502 81.1492 15.538C80.9752 15.574 80.8042 15.646 80.6362 15.754C80.4682 15.862 80.3122 16.012 80.1682 16.204C80.0242 16.396 79.8982 16.645 79.7902 16.951V18.256C79.7902 18.928 79.7902 19.561 79.7902 20.155C79.7902 20.743 79.7902 21.358 79.7902 22H77.0992ZM88.5821 22.243C87.7661 22.243 87.0551 22.114 86.4491 21.856C85.8491 21.598 85.3511 21.247 84.9551 20.803C84.5651 20.359 84.2711 19.852 84.0731 19.282C83.8811 18.706 83.7851 18.106 83.7851 17.482C83.7851 16.588 83.9651 15.787 84.3251 15.079C84.6911 14.365 85.2251 13.804 85.9271 13.396C86.6351 12.982 87.5021 12.775 88.5281 12.775C89.3201 12.775 90.0131 12.895 90.6071 13.135C91.2071 13.369 91.7051 13.702 92.1011 14.134C92.5031 14.56 92.8031 15.061 93.0011 15.637C93.1991 16.207 93.2981 16.822 93.2981 17.482C93.2981 18.388 93.1151 19.201 92.7491 19.921C92.3831 20.635 91.8491 21.202 91.1471 21.622C90.4451 22.036 89.5901 22.243 88.5821 22.243ZM88.5731 20.047C89.0231 20.047 89.3921 19.927 89.6801 19.687C89.9741 19.441 90.1931 19.123 90.3371 18.733C90.4871 18.343 90.5621 17.926 90.5621 17.482C90.5621 16.954 90.4781 16.504 90.3101 16.132C90.1421 15.754 89.9081 15.466 89.6081 15.268C89.3081 15.07 88.9601 14.971 88.5641 14.971C88.1201 14.971 87.7451 15.082 87.4391 15.304C87.1391 15.526 86.9111 15.826 86.7551 16.204C86.6051 16.582 86.5301 17.008 86.5301 17.482C86.5301 17.926 86.6051 18.343 86.7551 18.733C86.9111 19.123 87.1391 19.441 87.4391 19.687C87.7451 19.927 88.1231 20.047 88.5731 20.047ZM98.8016 22.243C98.1356 22.243 97.5656 22.144 97.0916 21.946C96.6236 21.742 96.2636 21.418 96.0116 20.974C95.7656 20.53 95.6426 19.945 95.6426 19.219C95.6426 18.829 95.6426 18.43 95.6426 18.022C95.6426 17.608 95.6426 17.176 95.6426 16.726C95.6426 16.276 95.6426 15.802 95.6426 15.304C95.6426 14.806 95.6426 14.269 95.6426 13.693C95.6426 13.015 95.6426 12.394 95.6426 11.83C95.6426 11.266 95.6426 10.69 95.6426 10.102L98.2886 9.625C98.2886 10.093 98.2886 10.537 98.2886 10.957C98.2886 11.371 98.2886 11.8 98.2886 12.244C98.2886 12.682 98.2886 13.165 98.2886 13.693V18.373C98.2886 18.919 98.3876 19.336 98.5856 19.624C98.7896 19.906 99.1196 20.047 99.5756 20.047C99.7676 20.047 99.9776 20.014 100.206 19.948C100.434 19.876 100.653 19.765 100.863 19.615L101.016 21.793C100.86 21.889 100.662 21.97 100.422 22.036C100.182 22.102 99.9206 22.153 99.6386 22.189C99.3566 22.225 99.0776 22.243 98.8016 22.243ZM94.1846 15.043V13.018H100.971V15.043C100.407 15.043 99.8396 15.043 99.2696 15.043C98.7056 15.043 98.1596 15.043 97.6316 15.043H96.4346H94.1846ZM106.811 22.243C105.995 22.243 105.284 22.114 104.678 21.856C104.078 21.598 103.58 21.247 103.184 20.803C102.794 20.359 102.5 19.852 102.302 19.282C102.11 18.706 102.014 18.106 102.014 17.482C102.014 16.588 102.194 15.787 102.554 15.079C102.92 14.365 103.454 13.804 104.156 13.396C104.864 12.982 105.731 12.775 106.757 12.775C107.549 12.775 108.242 12.895 108.836 13.135C109.436 13.369 109.934 13.702 110.33 14.134C110.732 14.56 111.032 15.061 111.23 15.637C111.428 16.207 111.527 16.822 111.527 17.482C111.527 18.388 111.344 19.201 110.978 19.921C110.612 20.635 110.078 21.202 109.376 21.622C108.674 22.036 107.819 22.243 106.811 22.243ZM106.802 20.047C107.252 20.047 107.621 19.927 107.909 19.687C108.203 19.441 108.422 19.123 108.566 18.733C108.716 18.343 108.791 17.926 108.791 17.482C108.791 16.954 108.707 16.504 108.539 16.132C108.371 15.754 108.137 15.466 107.837 15.268C107.537 15.07 107.189 14.971 106.793 14.971C106.349 14.971 105.974 15.082 105.668 15.304C105.368 15.526 105.14 15.826 104.984 16.204C104.834 16.582 104.759 17.008 104.759 17.482C104.759 17.926 104.834 18.343 104.984 18.733C105.14 19.123 105.368 19.441 105.668 19.687C105.974 19.927 106.352 20.047 106.802 20.047ZM117.03 22.243C116.364 22.243 115.794 22.144 115.32 21.946C114.852 21.742 114.492 21.418 114.24 20.974C113.994 20.53 113.871 19.945 113.871 19.219C113.871 18.829 113.871 18.43 113.871 18.022C113.871 17.608 113.871 17.176 113.871 16.726C113.871 16.276 113.871 15.802 113.871 15.304C113.871 14.806 113.871 14.269 113.871 13.693C113.871 13.015 113.871 12.394 113.871 11.83C113.871 11.266 113.871 10.69 113.871 10.102L116.517 9.625C116.517 10.093 116.517 10.537 116.517 10.957C116.517 11.371 116.517 11.8 116.517 12.244C116.517 12.682 116.517 13.165 116.517 13.693V18.373C116.517 18.919 116.616 19.336 116.814 19.624C117.018 19.906 117.348 20.047 117.804 20.047C117.996 20.047 118.206 20.014 118.434 19.948C118.662 19.876 118.881 19.765 119.091 19.615L119.244 21.793C119.088 21.889 118.89 21.97 118.65 22.036C118.41 22.102 118.149 22.153 117.867 22.189C117.585 22.225 117.306 22.243 117.03 22.243ZM112.413 15.043V13.018H119.199V15.043C118.635 15.043 118.068 15.043 117.498 15.043C116.934 15.043 116.388 15.043 115.86 15.043H114.663H112.413ZM121.734 25.537C121.98 24.925 122.229 24.298 122.481 23.656C122.733 23.02 122.982 22.399 123.228 21.793V22.297C123.012 21.679 122.793 21.058 122.571 20.434C122.349 19.804 122.13 19.189 121.914 18.589L121.347 16.969C121.119 16.327 120.885 15.67 120.645 14.998C120.411 14.32 120.18 13.66 119.952 13.018L122.85 12.937C123.018 13.591 123.183 14.23 123.345 14.854C123.507 15.472 123.672 16.108 123.84 16.762L124.47 19.192H124.686L125.379 16.762C125.559 16.132 125.736 15.508 125.91 14.89C126.084 14.272 126.258 13.648 126.432 13.018H129.312C129.126 13.498 128.946 13.963 128.772 14.413C128.598 14.863 128.406 15.361 128.196 15.907C127.992 16.447 127.746 17.092 127.458 17.842L126.477 20.362C126.039 21.502 125.664 22.474 125.352 23.278C125.046 24.082 124.767 24.808 124.515 25.456L121.734 25.537ZM130.677 25.537C130.677 24.895 130.677 24.259 130.677 23.629C130.677 22.999 130.677 22.312 130.677 21.568V17.212C130.677 16.522 130.677 15.829 130.677 15.133C130.677 14.437 130.677 13.732 130.677 13.018L133.062 12.883L133.143 14.116H133.359C133.539 13.834 133.755 13.594 134.007 13.396C134.265 13.192 134.556 13.039 134.88 12.937C135.204 12.829 135.561 12.775 135.951 12.775C136.743 12.775 137.409 12.982 137.949 13.396C138.489 13.81 138.897 14.374 139.173 15.088C139.449 15.802 139.587 16.606 139.587 17.5C139.587 18.334 139.455 19.111 139.191 19.831C138.933 20.551 138.537 21.133 138.003 21.577C137.469 22.021 136.794 22.243 135.978 22.243C135.612 22.243 135.279 22.192 134.979 22.09C134.685 21.994 134.418 21.856 134.178 21.676C133.938 21.496 133.722 21.28 133.53 21.028H133.368V21.712C133.368 22.384 133.368 23.014 133.368 23.602C133.368 24.196 133.368 24.814 133.368 25.456L130.677 25.537ZM134.961 19.957C135.387 19.957 135.738 19.84 136.014 19.606C136.296 19.372 136.503 19.072 136.635 18.706C136.767 18.334 136.833 17.938 136.833 17.518C136.833 17.08 136.764 16.678 136.626 16.312C136.488 15.94 136.278 15.643 135.996 15.421C135.72 15.199 135.369 15.088 134.943 15.088C134.733 15.088 134.529 15.121 134.331 15.187C134.139 15.247 133.959 15.337 133.791 15.457C133.629 15.577 133.488 15.721 133.368 15.889V18.949C133.476 19.153 133.605 19.33 133.755 19.48C133.905 19.63 134.079 19.747 134.277 19.831C134.481 19.915 134.709 19.957 134.961 19.957ZM145.83 22.234C144.672 22.234 143.724 22.03 142.986 21.622C142.254 21.214 141.714 20.653 141.366 19.939C141.024 19.225 140.853 18.406 140.853 17.482C140.853 16.558 141.015 15.742 141.339 15.034C141.663 14.326 142.146 13.774 142.788 13.378C143.436 12.976 144.24 12.775 145.2 12.775C146.016 12.775 146.715 12.922 147.297 13.216C147.879 13.504 148.326 13.942 148.638 14.53C148.95 15.118 149.106 15.859 149.106 16.753C149.106 16.993 149.1 17.206 149.088 17.392C149.076 17.578 149.055 17.764 149.025 17.95L146.721 17.077C146.733 16.999 146.742 16.918 146.748 16.834C146.754 16.75 146.757 16.672 146.757 16.6C146.757 15.994 146.613 15.52 146.325 15.178C146.043 14.83 145.677 14.656 145.227 14.656C144.885 14.656 144.582 14.758 144.318 14.962C144.054 15.16 143.847 15.439 143.697 15.799C143.547 16.159 143.472 16.588 143.472 17.086V17.527C143.472 18.049 143.565 18.496 143.751 18.868C143.943 19.24 144.237 19.525 144.633 19.723C145.029 19.921 145.536 20.02 146.154 20.02C146.394 20.02 146.67 19.999 146.982 19.957C147.3 19.909 147.621 19.84 147.945 19.75C148.275 19.654 148.581 19.534 148.863 19.39L148.953 21.658C148.719 21.766 148.446 21.865 148.134 21.955C147.828 22.039 147.48 22.105 147.09 22.153C146.7 22.207 146.28 22.234 145.83 22.234ZM141.888 17.95V16.51L147.459 16.393L149.025 16.834V17.95H141.888Z" fill="white"/>
<rect y="48" width="214" height="312" rx="32" fill="#222222"/>
<rect x="0.5" y="48.5" width="213" height="311" rx="31.5" stroke="white" stroke-opacity="0.1"/>
<g opacity="0.05">
<circle cx="25" cy="69" r="5" fill="white"/>
<circle cx="41" cy="69" r="5" fill="white"/>
<circle cx="57" cy="69" r="5" fill="white"/>
</g>
<rect opacity="0.1" x="20" y="86" width="175" height="38" rx="3" fill="white"/>
<rect opacity="0.1" x="20" y="140" width="53" height="38" rx="3" fill="white"/>
<rect opacity="0.1" x="81" y="140" width="53" height="38" rx="3" fill="white"/>
<rect opacity="0.1" x="142" y="140" width="53" height="38" rx="3" fill="white"/>
<rect opacity="0.05" x="20" y="194" width="175" height="38" rx="3" fill="white"/>
<rect opacity="0.1" width="114" height="38" rx="3" transform="matrix(-1 0 0 1 195 248)" fill="white"/>
<rect opacity="0.05" width="53" height="38" rx="3" transform="matrix(-1 0 0 1 73 248)" fill="white"/>
<rect opacity="0.1" x="20" y="302" width="53" height="38" rx="3" fill="white"/>
<rect opacity="0.1" x="81" y="302" width="53" height="38" rx="3" fill="white"/>
<rect opacity="0.05" x="142" y="302" width="53" height="38" rx="3" fill="white"/>
<rect x="184" y="341" width="82" height="38" rx="19" fill="#FED500"/>
<path d="M219 352V368C219 368.178 219.047 368.353 219.137 368.506C219.227 368.66 219.357 368.787 219.512 368.873C219.667 368.96 219.843 369.004 220.021 369C220.199 368.997 220.372 368.946 220.524 368.852L233.524 360.852C233.67 360.763 233.79 360.638 233.873 360.488C233.957 360.339 234 360.171 234 360C234 359.829 233.957 359.661 233.873 359.512C233.79 359.363 233.67 359.238 233.524 359.148L220.524 351.148C220.372 351.055 220.199 351.004 220.021 351C219.843 350.997 219.667 351.04 219.512 351.127C219.357 351.214 219.227 351.341 219.137 351.494C219.047 351.648 219 351.822 219 352Z" fill="black"/>
</svg>
