<svg width="632" height="333" viewBox="0 0 632 333" fill="none" xmlns="http://www.w3.org/2000/svg">
<mask id="path-1-inside-1_3001_93" fill="white">
<path fill-rule="evenodd" clip-rule="evenodd" d="M5.29504 67.1839C2.54187 74.3561 3.47853 83.2679 5.35186 101.091L9.28213 138.485C11.1555 156.309 12.0921 165.221 16.2763 171.664C19.9568 177.331 25.3371 181.688 31.646 184.11C38.3781 186.694 46.6427 186.027 62.371 184.387C60.5241 166.811 73.2748 151.065 90.8508 149.218C108.427 147.371 124.173 160.121 126.02 177.698L441.085 144.583C458.908 142.71 467.82 141.773 474.263 137.589C479.931 133.908 484.288 128.528 486.709 122.219C489.463 115.047 488.526 106.135 486.653 88.3118L482.722 50.9177C480.849 33.0942 479.912 24.1825 475.728 17.7394C472.048 12.0719 466.667 7.71501 460.359 5.29325C453.186 2.54008 444.275 3.47674 426.451 5.35007L50.9195 44.82C33.096 46.6933 24.1843 47.63 17.7412 51.8142C12.0736 55.4947 7.71679 60.875 5.29504 67.1839Z"/>
</mask>
<path fill-rule="evenodd" clip-rule="evenodd" d="M5.29504 67.1839C2.54187 74.3561 3.47853 83.2679 5.35186 101.091L9.28213 138.485C11.1555 156.309 12.0921 165.221 16.2763 171.664C19.9568 177.331 25.3371 181.688 31.646 184.11C38.3781 186.694 46.6427 186.027 62.371 184.387C60.5241 166.811 73.2748 151.065 90.8508 149.218C108.427 147.371 124.173 160.121 126.02 177.698L441.085 144.583C458.908 142.71 467.82 141.773 474.263 137.589C479.931 133.908 484.288 128.528 486.709 122.219C489.463 115.047 488.526 106.135 486.653 88.3118L482.722 50.9177C480.849 33.0942 479.912 24.1825 475.728 17.7394C472.048 12.0719 466.667 7.71501 460.359 5.29325C453.186 2.54008 444.275 3.47674 426.451 5.35007L50.9195 44.82C33.096 46.6933 24.1843 47.63 17.7412 51.8142C12.0736 55.4947 7.71679 60.875 5.29504 67.1839Z" fill="#222222"/>
<path d="M5.35186 101.091L6.34638 100.987L5.35186 101.091ZM5.29504 67.1839L4.36146 66.8255L5.29504 67.1839ZM9.28213 138.485L8.28761 138.59L9.28213 138.485ZM16.2763 171.664L17.115 171.119L17.115 171.119L16.2763 171.664ZM31.646 184.11L32.0044 183.176L31.646 184.11ZM62.371 184.387L62.4747 185.381L63.4701 185.278L63.3655 184.282L62.371 184.387ZM126.02 177.698L125.026 177.802L125.13 178.797L126.125 178.692L126.02 177.698ZM474.263 137.589L474.808 138.428L474.263 137.589ZM486.709 122.219L485.776 121.861L485.776 121.861L486.709 122.219ZM475.728 17.7394L474.89 18.284L474.89 18.284L475.728 17.7394ZM460.359 5.29325L460.717 4.35967L460.717 4.35967L460.359 5.29325ZM17.7412 51.8142L17.1965 50.9755L17.7412 51.8142ZM6.34638 100.987C5.40799 92.0587 4.71126 85.4223 4.58824 80.1202C4.4655 74.8299 4.91818 70.9561 6.22862 67.5423L4.36146 66.8255C2.91872 70.584 2.46316 74.7522 2.58878 80.1666C2.71413 85.5693 3.4224 92.3006 4.35734 101.196L6.34638 100.987ZM10.2766 138.381L6.34638 100.987L4.35734 101.196L8.28761 138.59L10.2766 138.381ZM17.115 171.119C15.1234 168.052 13.8752 164.357 12.8954 159.157C11.9133 153.945 11.215 147.309 10.2766 138.381L8.28761 138.59C9.22254 147.485 9.92926 154.217 10.9299 159.527C11.9328 164.85 13.245 168.832 15.4376 172.208L17.115 171.119ZM32.0044 183.176C25.8926 180.83 20.6805 176.61 17.115 171.119L15.4376 172.208C19.2332 178.053 24.7816 182.546 31.2876 185.043L32.0044 183.176ZM62.2672 183.392C54.393 184.214 48.443 184.785 43.6249 184.833C38.8184 184.881 35.2083 184.406 32.0044 183.176L31.2876 185.043C34.8158 186.398 38.7041 186.882 43.6449 186.833C48.5742 186.783 54.6207 186.201 62.4747 185.381L62.2672 183.392ZM63.3655 184.282C61.5763 167.256 73.9286 152.002 90.9554 150.212L90.7463 148.223C72.621 150.128 59.4718 166.366 61.3764 184.491L63.3655 184.282ZM90.9554 150.212C107.982 148.423 123.236 160.775 125.026 177.802L127.015 177.593C125.11 159.468 108.872 146.318 90.7463 148.223L90.9554 150.212ZM440.98 143.589L125.916 176.703L126.125 178.692L441.189 145.578L440.98 143.589ZM473.719 136.75C470.652 138.742 466.957 139.99 461.757 140.97C456.545 141.952 449.909 142.65 440.98 143.589L441.189 145.578C450.085 144.643 456.816 143.936 462.127 142.935C467.449 141.932 471.432 140.62 474.808 138.428L473.719 136.75ZM485.776 121.861C483.43 127.973 479.209 133.185 473.719 136.75L474.808 138.428C480.653 134.632 485.146 129.084 487.643 122.578L485.776 121.861ZM485.658 88.4163C486.597 97.3445 487.293 103.981 487.416 109.283C487.539 114.573 487.086 118.447 485.776 121.861L487.643 122.578C489.086 118.819 489.541 114.651 489.416 109.237C489.29 103.834 488.582 97.1026 487.647 88.2072L485.658 88.4163ZM481.728 51.0223L485.658 88.4163L487.647 88.2072L483.717 50.8132L481.728 51.0223ZM474.89 18.284C476.881 21.3508 478.129 25.0458 479.109 30.2461C480.091 35.4579 480.789 42.0941 481.728 51.0223L483.717 50.8132C482.782 41.9179 482.075 35.1865 481.075 29.8757C480.072 24.5535 478.759 20.5711 476.567 17.1947L474.89 18.284ZM460 6.22683C466.112 8.57291 471.324 12.7936 474.89 18.284L476.567 17.1947C472.771 11.3501 467.223 6.85711 460.717 4.35967L460 6.22683ZM426.556 6.34459C435.484 5.4062 442.12 4.70947 447.422 4.58645C452.713 4.46371 456.586 4.9164 460 6.22683L460.717 4.35967C456.958 2.91693 452.79 2.46137 447.376 2.58699C441.973 2.71235 435.242 3.42061 426.346 4.35555L426.556 6.34459ZM51.0241 45.8145L426.556 6.34459L426.346 4.35555L50.815 43.8255L51.0241 45.8145ZM18.2858 52.6529C21.3525 50.6613 25.0476 49.4131 30.2479 48.4332C35.4597 47.4512 42.0959 46.7529 51.0241 45.8145L50.815 43.8255C41.9197 44.7604 35.1883 45.4672 29.8775 46.4678C24.5553 47.4707 20.5729 48.7829 17.1965 50.9755L18.2858 52.6529ZM6.22862 67.5423C8.57469 61.4305 12.7954 56.2184 18.2858 52.6529L17.1965 50.9755C11.3519 54.7711 6.85889 60.3195 4.36146 66.8255L6.22862 67.5423Z" fill="white" fill-opacity="0.1" mask="url(#path-1-inside-1_3001_93)"/>
<rect opacity="0.1" x="24.8599" y="66.6641" width="306" height="10" rx="3" transform="rotate(-6 24.8599 66.6641)" fill="white"/>
<rect opacity="0.1" x="26.5322" y="82.5781" width="232" height="10" rx="3" transform="rotate(-6 26.5322 82.5781)" fill="white"/>
<rect opacity="0.1" x="28.2046" y="98.4883" width="251" height="10" rx="3" transform="rotate(-6 28.2046 98.4883)" fill="white"/>
<rect opacity="0.1" x="29.8774" y="114.402" width="136" height="10" rx="3" transform="rotate(-6 29.8774 114.402)" fill="white"/>
<circle cx="94.1958" cy="181.041" r="28" transform="rotate(-6 94.1958 181.041)" fill="white"/>
<path d="M79.6008 184.058L76.4434 179.331C76.1 178.818 75.7709 178.328 75.4563 177.86C75.1477 177.392 74.7897 176.857 74.3825 176.254L77.73 175.902C78.0029 176.374 78.2357 176.781 78.4285 177.123C78.6206 177.458 78.8019 177.777 78.9724 178.079C79.1489 178.38 79.3407 178.713 79.5479 179.077L80.5671 180.853L80.8087 180.827L81.4332 178.933C81.5762 178.514 81.702 178.133 81.8107 177.79C81.9254 177.446 82.0445 177.086 82.168 176.711C82.2915 176.337 82.4382 175.896 82.6082 175.389L85.8573 175.048C85.6286 175.627 85.3998 176.206 85.1711 176.785C84.9418 177.358 84.7204 177.921 84.5071 178.475L82.4114 183.763L79.6008 184.058ZM80.0114 188.567C79.9393 187.881 79.8693 187.215 79.8016 186.571C79.7339 185.926 79.658 185.204 79.5739 184.405L79.2776 181.585L82.2313 181.275L82.5277 184.094C82.6117 184.894 82.6876 185.616 82.7553 186.26C82.8231 186.905 82.893 187.57 82.9651 188.256L80.0114 188.567ZM94.0417 187.337C92.89 187.458 91.875 187.386 90.9967 187.123C90.1177 186.853 89.3744 186.44 88.7667 185.882C88.1585 185.318 87.6784 184.654 87.3265 183.889C86.9805 183.123 86.7614 182.301 86.6692 181.424C86.5388 180.183 86.6655 179.035 87.0495 177.981C87.4388 176.921 88.0887 176.044 88.9992 175.351C89.9158 174.657 91.105 174.234 92.5669 174.08C93.6768 173.963 94.6647 174.035 95.5305 174.293C96.3957 174.546 97.1347 174.948 97.7477 175.499C98.3666 176.05 98.8553 176.71 99.2138 177.481C99.5724 178.252 99.7999 179.097 99.8965 180.015C100.03 181.286 99.8956 182.447 99.4932 183.497C99.0967 184.546 98.4425 185.411 97.5307 186.092C96.6189 186.773 95.4559 187.188 94.0417 187.337ZM93.742 184.916C94.3327 184.854 94.8373 184.689 95.2557 184.422C95.6734 184.149 96.0078 183.8 96.2588 183.375C96.5097 182.951 96.6805 182.48 96.771 181.964C96.8669 181.441 96.8854 180.899 96.8264 180.338C96.7643 179.747 96.6261 179.207 96.4116 178.717C96.2026 178.22 95.9258 177.796 95.5813 177.446C95.2428 177.096 94.8445 176.836 94.3863 176.667C93.9281 176.498 93.4186 176.443 92.8577 176.502C92.2789 176.563 91.7773 176.727 91.353 176.995C90.9346 177.262 90.5969 177.608 90.34 178.034C90.0824 178.453 89.9027 178.924 89.8008 179.448C89.699 179.971 89.6779 180.516 89.7375 181.083C89.797 181.65 89.9281 182.179 90.1306 182.671C90.3324 183.156 90.6002 183.581 90.934 183.944C91.2731 184.3 91.6754 184.569 92.1408 184.749C92.6115 184.923 93.1453 184.978 93.742 184.916ZM107.816 185.889C106.515 186.026 105.446 185.927 104.608 185.592C103.777 185.258 103.142 184.724 102.703 183.992C102.263 183.254 101.988 182.36 101.878 181.309C101.853 181.077 101.821 180.769 101.781 180.388C101.74 180 101.696 179.576 101.647 179.117C101.598 178.651 101.549 178.186 101.501 177.72C101.414 176.897 101.336 176.154 101.266 175.491C101.197 174.829 101.125 174.149 101.052 173.451L103.988 173.142C104.061 173.84 104.132 174.521 104.202 175.183C104.272 175.845 104.35 176.588 104.436 177.412L104.797 180.84C104.861 181.448 104.999 181.959 105.211 182.371C105.423 182.783 105.72 183.084 106.102 183.273C106.49 183.461 106.973 183.525 107.552 183.464C108.137 183.403 108.593 183.24 108.922 182.976C109.256 182.712 109.478 182.357 109.588 181.911C109.704 181.464 109.729 180.934 109.665 180.319L109.306 176.9C109.219 176.076 109.141 175.334 109.071 174.671C109.002 174.009 108.93 173.329 108.857 172.63L111.793 172.322C111.866 173.02 111.937 173.7 112.007 174.363C112.077 175.025 112.155 175.768 112.241 176.591C112.29 177.057 112.34 177.525 112.389 177.997C112.438 178.462 112.483 178.889 112.524 179.277C112.564 179.664 112.596 179.969 112.62 180.189C112.73 181.24 112.638 182.169 112.343 182.979C112.048 183.788 111.528 184.443 110.784 184.943C110.041 185.444 109.051 185.759 107.816 185.889Z" fill="#242424"/>
<path fill-rule="evenodd" clip-rule="evenodd" d="M155.171 148.763C151.214 155.348 150.589 164.287 149.339 182.165L146.716 219.674C145.466 237.552 144.841 246.491 147.842 253.562C150.483 259.783 155.025 265.008 160.817 268.488C167.402 272.445 176.342 273.07 194.22 274.32L510.248 296.419C511.481 278.789 526.772 265.497 544.402 266.729C562.032 267.962 575.324 283.253 574.092 300.883C589.868 301.974 598.151 302.351 604.789 299.534C611.009 296.893 616.234 292.351 619.715 286.559C623.671 279.974 624.296 271.035 625.547 253.157L628.169 215.648C629.42 197.77 630.045 188.831 627.043 181.759C624.402 175.539 619.86 170.314 614.068 166.833C607.483 162.877 598.544 162.252 580.666 161.001L203.985 134.661C186.107 133.411 177.168 132.786 170.097 135.788C163.876 138.428 158.651 142.97 155.171 148.763Z" fill="#FED500"/>
<rect opacity="0.3" x="174.529" y="151.648" width="306" height="10" rx="3" transform="rotate(4 174.529 151.648)" fill="black"/>
<rect opacity="0.3" x="173.413" y="167.609" width="232" height="10" rx="3" transform="rotate(4 173.413 167.609)" fill="black"/>
<rect opacity="0.3" x="172.296" y="183.57" width="251" height="10" rx="3" transform="rotate(4 172.296 183.57)" fill="black"/>
<rect opacity="0.3" x="171.181" y="199.531" width="136" height="10" rx="3" transform="rotate(4 171.181 199.531)" fill="black"/>
<circle cx="542.17" cy="298.651" r="28" transform="rotate(4 542.17 298.651)" fill="white"/>
<path d="M547.298 289.827L547.402 288.34C547.411 288.212 547.46 288.09 547.542 287.994L551.637 283.214C552.06 282.72 551.493 281.996 550.942 282.327L544.795 286.009C544.699 286.067 544.588 286.094 544.477 286.086C542.922 285.982 541.241 285.934 540.663 285.976C540.077 286.02 539.082 286.179 538.461 286.335C537.84 286.49 536.946 286.784 536.474 286.993C536.003 287.188 535.226 287.589 534.749 287.869C534.271 288.163 533.498 288.721 533.013 289.114C532.54 289.522 531.856 290.186 531.509 290.589C531.148 290.991 530.579 291.791 530.222 292.35C529.877 292.91 529.397 293.83 529.164 294.383C528.933 294.922 528.608 295.996 528.431 296.738C528.211 297.705 528.111 298.538 528.097 299.534C528.084 300.316 528.149 301.374 528.223 301.892C528.312 302.41 528.479 303.191 528.601 303.626C528.723 304.062 529.051 304.925 529.314 305.527C529.577 306.129 530.029 307.001 530.33 307.449C530.618 307.896 531.203 308.649 531.614 309.119C532.039 309.576 532.728 310.236 533.16 310.594C533.594 310.937 534.307 311.443 534.746 311.701C535.185 311.974 536.029 312.389 536.622 312.63C537.216 312.871 538.179 313.166 538.753 313.291C539.322 313.414 541.446 313.632 547.123 314.033C547.432 314.055 547.7 313.813 547.722 313.493L547.939 310.396C547.961 310.078 547.732 309.802 547.426 309.778L543.501 309.466C539.141 309.119 539.071 309.113 538.009 308.669C537.416 308.414 536.484 307.865 535.945 307.443C535.406 307.035 534.615 306.239 534.196 305.698C533.776 305.156 533.231 304.235 532.995 303.635C532.746 303.034 532.458 302.003 532.339 301.325C532.161 300.302 532.151 299.846 532.306 298.618C532.439 297.517 532.611 296.845 532.945 296.029C533.195 295.42 533.732 294.489 534.128 293.976C534.511 293.462 535.199 292.741 535.627 292.372C536.067 292.019 536.811 291.501 537.286 291.25C537.761 290.998 538.659 290.648 539.28 290.492C540.097 290.266 540.642 290.2 542.544 290.298C542.744 290.309 542.924 290.43 543.013 290.616L545.216 295.207C546.497 297.902 547.518 300.151 547.487 300.206C547.457 300.27 546.971 300.546 545.414 301.343C545.184 301.461 544.907 301.402 544.742 301.2L542.212 298.115C540.666 296.241 539.346 294.697 539.263 294.691C539.186 294.685 538.567 295.187 536.673 296.872C536.436 297.083 536.409 297.454 536.614 297.696L540.148 301.871C542.299 304.413 544.094 306.504 544.148 306.522C544.216 306.541 544.974 306.209 545.849 305.786C546.724 305.363 548.677 304.404 550.186 303.641C551.709 302.879 552.948 302.211 552.953 302.126C552.959 302.041 551.709 299.319 547.355 290.128C547.311 290.035 547.29 289.93 547.298 289.827Z" fill="#242424"/>
<path d="M550.942 282.327L544.906 285.943C544.744 286.04 544.639 286.214 544.625 286.407L544.518 287.94L547.141 288.123C547.314 288.135 547.483 288.063 547.599 287.928L551.637 283.214C552.06 282.72 551.493 281.996 550.942 282.327Z" fill="#242424"/>
</svg>
